<?xml version="1.0" standalone="no"?>
<!DOCTYPE svg PUBLIC "-//W3C//DTD SVG 20010904//EN"
 "http://www.w3.org/TR/2001/REC-SVG-20010904/DTD/svg10.dtd">
<svg version="1.0" xmlns="http://www.w3.org/2000/svg"
 width="832.000000pt" height="512.000000pt" viewBox="0 0 832.000000 512.000000"
 preserveAspectRatio="xMidYMid meet">
<metadata>
Created by potrace 1.16, written by Peter Selinger 2001-2019
</metadata>
<g transform="translate(0.000000,512.000000) scale(0.100000,-0.100000)"
fill="#000000" stroke="none">
<path d="M3439 4946 c-170 -45 -332 -143 -442 -267 -31 -35 -141 -181 -244
-324 -104 -143 -368 -507 -587 -809 -220 -302 -418 -581 -442 -620 -56 -92
-100 -227 -115 -346 -53 -439 235 -856 668 -966 277 -71 584 1 800 188 83 72
120 119 413 523 139 193 282 388 316 435 420 573 620 856 655 926 108 222 120
489 30 720 -83 213 -237 379 -445 479 -134 64 -232 85 -390 85 -103 -1 -149
-6 -217 -24z m361 -171 c266 -56 474 -253 546 -515 22 -80 25 -261 5 -340 -28
-119 -94 -226 -371 -605 -148 -203 -274 -369 -280 -367 -6 1 -108 73 -228 160
-119 87 -374 272 -565 411 -240 175 -345 256 -339 264 5 7 128 176 273 377
145 201 291 392 325 426 164 164 408 237 634 189z m-915 -1470 c204 -147 395
-286 425 -308 83 -61 148 -109 217 -158 34 -24 63 -48 63 -53 0 -14 -530 -738
-579 -790 -92 -96 -189 -156 -321 -197 -62 -20 -96 -24 -200 -23 -108 0 -136
4 -205 27 -115 38 -199 91 -290 182 -59 59 -91 101 -122 160 -65 128 -77 180
-78 335 0 148 16 217 76 330 24 45 193 283 403 570 18 25 65 89 105 143 l72
99 32 -25 c18 -13 199 -144 402 -292z"/>
<path d="M5594 4836 c-274 -62 -496 -280 -564 -550 -24 -96 -27 -262 -5 -354
93 -395 485 -648 879 -567 282 58 506 269 582 545 25 91 25 291 0 380 -69 252
-252 444 -506 530 -84 29 -293 37 -386 16z m339 -196 c170 -53 326 -219 372
-397 20 -75 19 -209 -1 -287 -22 -86 -70 -170 -135 -241 -215 -229 -579 -239
-802 -21 -231 226 -234 581 -6 807 150 150 367 202 572 139z"/>
<path d="M5160 2964 c-14 -2 -59 -9 -100 -15 -94 -14 -289 -78 -382 -125 -286
-144 -508 -372 -647 -665 -107 -224 -149 -454 -130 -705 25 -329 136 -590 359
-843 207 -236 510 -398 843 -451 99 -15 321 -13 431 5 306 49 620 222 823 453
472 535 479 1324 16 1863 -151 176 -365 325 -583 404 -150 54 -272 76 -445 80
-88 2 -171 2 -185 -1z m364 -200 c160 -28 351 -107 486 -202 79 -56 207 -177
265 -253 59 -76 108 -160 98 -169 -4 -5 -440 -200 -968 -435 -1271 -566 -1246
-555 -1255 -550 -12 7 -48 150 -61 244 -17 123 -6 322 25 446 159 638 761
1030 1410 919z m972 -910 c34 -133 44 -356 20 -490 -68 -392 -301 -713 -646
-892 -425 -221 -929 -177 -1313 115 -113 87 -237 225 -302 336 -23 40 -26 51
-14 58 8 5 282 128 609 273 327 146 822 366 1100 490 278 124 508 222 513 217
4 -4 19 -52 33 -107z"/>
</g>
</svg>
