<svg id="svg" version="1.1" xmlns="http://www.w3.org/2000/svg" xmlns:xlink="http://www.w3.org/1999/xlink" width="400" height="401.8987341772152" viewBox="0, 0, 400,401.8987341772152"><g id="svgg"><path id="path0" d="M193.800 20.769 C 195.131 21.074,194.268 21.271,189.200 21.821 C 187.990 21.952,186.640 22.204,186.200 22.380 C 185.760 22.556,184.320 23.002,183.000 23.370 C 179.578 24.325,171.164 27.967,170.400 28.824 C 170.290 28.948,169.120 29.708,167.800 30.513 C 157.029 37.086,149.098 48.518,146.372 61.400 C 145.201 66.929,145.071 69.897,144.830 96.600 C 144.576 124.768,144.553 125.200,143.197 128.013 C 143.035 128.350,142.775 129.205,142.619 129.913 C 142.464 130.621,142.171 131.200,141.968 131.200 C 141.766 131.200,141.600 131.524,141.600 131.920 C 141.600 132.316,141.399 132.841,141.154 133.086 C 140.908 133.332,140.488 133.953,140.221 134.466 C 139.953 134.980,139.531 135.357,139.282 135.305 C 139.033 135.252,138.923 135.455,139.038 135.755 C 139.330 136.515,134.293 141.586,131.600 143.245 C 127.980 145.475,124.082 147.200,122.663 147.200 C 122.104 147.200,121.522 147.402,121.370 147.649 C 121.192 147.937,120.390 148.015,119.146 147.868 C 118.076 147.741,117.200 147.796,117.200 147.990 C 117.200 148.186,106.128 148.434,92.100 148.551 C 65.053 148.777,59.112 149.136,55.000 150.793 C 54.560 150.970,53.300 151.421,52.200 151.795 C 49.697 152.646,47.724 153.466,46.285 154.253 C 45.671 154.589,44.771 155.078,44.285 155.340 C 39.464 157.937,29.432 167.061,28.436 169.756 C 28.345 170.000,27.580 171.137,26.736 172.283 C 25.891 173.429,25.200 174.541,25.200 174.754 C 25.200 174.968,24.975 175.381,24.700 175.671 C 24.009 176.402,21.600 181.481,21.600 182.208 C 21.600 182.533,21.436 182.800,21.235 182.800 C 21.034 182.800,20.749 183.519,20.600 184.398 C 20.452 185.277,20.166 186.097,19.965 186.222 C 19.764 186.346,19.600 186.898,19.600 187.450 C 19.600 188.001,19.420 188.788,19.201 189.199 C 17.900 191.629,17.241 209.600,18.452 209.600 C 18.644 209.600,18.800 210.230,18.800 211.000 C 18.800 211.770,18.972 212.400,19.181 212.400 C 19.619 212.400,19.275 208.563,18.745 207.526 C 18.297 206.652,18.310 206.400,18.800 206.400 C 19.020 206.400,19.200 206.642,19.200 206.938 C 19.200 207.473,21.093 209.313,24.405 212.000 C 25.355 212.770,29.007 215.830,32.522 218.800 C 36.037 221.770,39.670 224.830,40.597 225.600 C 43.128 227.703,47.344 231.177,47.815 231.547 C 48.043 231.726,49.140 232.666,50.252 233.636 C 52.299 235.423,55.089 237.777,57.318 239.600 C 57.990 240.150,58.958 240.980,59.468 241.443 C 62.522 244.222,70.161 250.241,70.911 250.460 C 71.455 250.619,70.790 250.759,69.200 250.820 C 67.770 250.875,67.098 250.995,67.707 251.087 C 68.316 251.179,68.710 251.422,68.583 251.627 C 68.456 251.833,69.035 251.997,69.876 251.994 C 71.007 251.989,71.245 251.888,70.800 251.600 C 70.315 251.286,70.372 251.211,71.100 251.206 C 71.595 251.203,72.000 251.380,72.000 251.600 C 72.000 251.820,72.630 252.000,73.400 252.000 C 74.170 252.000,74.800 251.821,74.800 251.603 C 74.800 251.344,84.917 251.169,103.765 251.103 L 132.730 251.000 132.865 236.200 L 133.000 221.400 101.800 221.538 C 71.562 221.672,64.468 221.472,62.486 220.428 C 62.109 220.229,61.192 219.841,60.450 219.564 C 53.845 217.105,48.000 208.013,48.000 200.200 C 48.000 192.689,53.206 184.081,59.503 181.179 C 60.547 180.698,61.670 180.174,62.000 180.014 C 62.651 179.699,66.107 178.920,67.400 178.796 C 67.840 178.754,80.620 178.566,95.800 178.378 C 128.122 177.977,126.000 178.031,126.000 177.612 C 126.000 177.430,126.765 177.202,127.700 177.107 C 129.724 176.900,132.910 176.091,134.660 175.341 C 135.354 175.043,136.198 174.800,136.537 174.800 C 136.876 174.800,137.274 174.604,137.422 174.365 C 137.569 174.126,138.030 174.019,138.446 174.128 C 138.861 174.236,139.100 174.162,138.977 173.963 C 138.854 173.763,139.108 173.600,139.543 173.600 C 139.978 173.600,140.393 173.465,140.467 173.300 C 140.540 173.135,141.757 172.400,143.170 171.666 C 144.584 170.933,146.802 169.628,148.099 168.766 C 149.395 167.905,150.515 167.200,150.587 167.200 C 151.541 167.200,162.800 155.772,162.800 154.803 C 162.800 154.582,162.944 154.400,163.120 154.400 C 163.295 154.400,163.880 153.685,164.420 152.811 C 164.959 151.937,165.535 151.217,165.700 151.211 C 165.865 151.205,166.000 150.940,166.000 150.623 C 166.000 150.305,166.315 149.810,166.700 149.523 C 167.085 149.235,167.402 148.820,167.405 148.600 C 167.411 148.232,169.642 143.329,171.015 140.668 C 171.337 140.045,171.600 139.200,171.600 138.791 C 171.600 138.382,171.764 137.946,171.965 137.822 C 172.166 137.697,172.458 136.832,172.614 135.898 C 172.770 134.964,173.022 134.110,173.173 134.000 C 173.659 133.647,174.517 127.921,174.688 123.900 C 174.779 121.755,174.976 119.999,175.127 119.998 C 175.277 119.997,175.448 119.175,175.506 118.171 C 175.576 116.952,175.469 116.434,175.183 116.611 C 174.567 116.991,174.828 69.785,175.449 68.400 C 175.696 67.850,176.122 66.680,176.397 65.800 C 177.504 62.255,183.004 55.200,184.662 55.200 C 184.958 55.200,185.200 55.047,185.200 54.861 C 185.200 54.311,188.286 53.082,188.827 53.417 C 189.129 53.604,189.222 53.559,189.064 53.304 C 187.945 51.493,201.474 50.947,203.721 52.713 C 203.984 52.920,204.650 53.197,205.200 53.329 C 206.687 53.685,210.079 55.949,209.800 56.400 C 209.667 56.615,209.803 56.697,210.102 56.582 C 210.844 56.298,213.694 59.416,215.147 62.102 C 217.905 67.200,217.702 62.944,217.795 117.600 C 217.876 165.498,218.146 177.253,219.197 178.600 C 219.521 179.015,220.207 182.373,220.075 182.900 C 220.034 183.065,220.180 183.200,220.400 183.200 C 220.620 183.200,220.800 183.639,220.800 184.176 C 220.800 184.713,220.966 185.255,221.169 185.381 C 221.372 185.506,221.657 186.149,221.802 186.809 C 222.051 187.943,222.776 189.723,223.639 191.316 C 223.853 191.710,223.902 192.250,223.749 192.516 C 223.597 192.782,223.616 192.870,223.791 192.711 C 223.967 192.552,225.211 194.284,226.556 196.559 C 227.900 198.834,229.990 201.839,231.200 203.236 C 234.091 206.575,243.970 216.400,244.436 216.400 C 244.636 216.400,244.800 216.580,244.800 216.800 C 244.800 217.020,245.070 217.200,245.400 217.200 C 245.730 217.200,246.000 217.040,246.000 216.843 C 246.000 216.647,246.495 216.367,247.100 216.221 C 248.635 215.850,250.400 215.057,250.400 214.738 C 250.400 214.591,251.120 214.349,252.000 214.200 C 252.880 214.051,253.600 213.745,253.600 213.518 C 253.600 213.292,254.050 213.193,254.600 213.298 C 255.150 213.403,255.600 213.334,255.600 213.145 C 255.600 212.955,256.050 212.800,256.600 212.800 C 257.150 212.800,257.600 212.640,257.600 212.445 C 257.600 212.041,259.664 211.547,261.300 211.559 C 261.905 211.564,262.400 211.415,262.400 211.228 C 262.400 210.779,264.885 210.319,267.481 210.288 C 268.626 210.274,269.470 210.114,269.358 209.932 C 269.245 209.749,270.184 209.600,271.444 209.600 C 274.095 209.600,278.800 208.852,278.800 208.431 C 278.800 208.273,273.757 203.176,267.592 197.106 C 253.446 183.174,251.466 180.656,249.584 174.200 C 248.413 170.183,248.329 166.943,248.141 118.600 C 248.023 88.507,247.785 67.326,247.541 65.400 C 247.319 63.640,247.106 61.615,247.068 60.900 C 247.031 60.185,246.865 59.600,246.700 59.600 C 246.535 59.600,246.400 59.161,246.400 58.624 C 246.400 58.087,246.220 57.536,246.000 57.400 C 245.780 57.264,245.600 56.786,245.600 56.337 C 245.600 55.888,245.314 54.864,244.965 54.060 C 243.810 51.408,241.070 45.804,240.827 45.600 C 240.696 45.490,239.902 44.388,239.063 43.150 C 236.726 39.706,231.195 34.230,227.396 31.600 C 226.602 31.050,225.738 30.410,225.476 30.178 C 225.214 29.945,224.730 29.629,224.400 29.474 C 224.070 29.320,223.260 28.866,222.600 28.467 C 220.689 27.310,216.757 25.368,214.800 24.612 C 213.810 24.230,212.707 23.769,212.349 23.586 C 211.991 23.404,211.001 23.129,210.149 22.975 C 209.297 22.821,208.420 22.561,208.200 22.397 C 207.980 22.233,206.720 21.979,205.400 21.833 C 199.983 21.235,199.263 21.075,200.600 20.769 C 201.269 20.616,199.764 20.495,197.200 20.495 C 194.636 20.495,193.131 20.616,193.800 20.769 M19.200 214.000 C 19.200 214.220,19.380 214.400,19.600 214.400 C 19.820 214.400,20.000 214.850,20.000 215.400 C 20.000 215.950,20.183 216.400,20.408 216.400 C 20.774 216.400,20.582 214.721,20.121 213.900 C 19.875 213.461,19.200 213.534,19.200 214.000 M21.102 218.600 C 21.207 219.150,21.427 219.600,21.591 219.600 C 21.755 219.600,21.803 219.150,21.698 218.600 C 21.593 218.050,21.373 217.600,21.209 217.600 C 21.045 217.600,20.997 218.050,21.102 218.600 M22.226 221.300 C 22.380 221.795,22.662 222.260,22.853 222.333 C 23.044 222.407,23.200 222.812,23.200 223.233 C 23.200 223.655,23.380 224.000,23.600 224.000 C 24.151 224.000,24.118 223.851,23.160 222.012 C 22.235 220.238,21.790 219.899,22.226 221.300 M23.762 224.862 C 23.585 225.148,23.652 225.215,23.938 225.038 C 24.212 224.869,24.400 225.007,24.400 225.376 C 24.400 225.719,24.586 226.000,24.814 226.000 C 25.095 226.000,25.090 225.742,24.800 225.200 C 24.305 224.276,24.154 224.227,23.762 224.862 M186.581 226.535 C 186.457 227.026,186.447 230.302,186.557 233.814 C 186.667 237.326,186.767 245.194,186.779 251.297 L 186.800 262.395 189.225 264.858 C 191.071 266.733,191.525 267.412,191.125 267.698 C 190.741 267.974,190.790 268.014,191.309 267.847 C 192.245 267.545,193.655 268.955,193.353 269.891 C 193.171 270.456,193.207 270.484,193.529 270.030 C 193.849 269.579,197.166 272.674,209.296 284.738 C 217.745 293.141,225.061 300.328,225.553 300.708 C 226.044 301.089,227.159 302.009,228.030 302.754 C 230.046 304.478,236.897 308.709,238.205 309.037 C 238.752 309.174,239.200 309.447,239.200 309.643 C 239.200 309.840,239.464 310.000,239.786 310.000 C 240.307 310.000,242.260 310.739,244.015 311.599 C 244.354 311.765,245.427 312.036,246.400 312.200 C 247.373 312.364,248.446 312.645,248.785 312.824 C 251.347 314.180,271.600 314.108,271.600 312.744 C 271.600 312.586,272.590 312.334,273.800 312.183 C 275.010 312.032,276.000 311.769,276.000 311.598 C 276.000 311.300,278.687 310.595,279.300 310.733 C 279.465 310.770,279.600 310.620,279.600 310.400 C 279.600 310.180,279.784 310.000,280.008 310.000 C 280.472 310.000,285.693 307.539,286.000 307.176 C 286.110 307.046,286.827 306.593,287.593 306.170 C 288.359 305.746,289.227 305.175,289.521 304.900 C 289.816 304.625,290.217 304.400,290.412 304.400 C 290.977 304.400,298.994 296.855,300.216 295.173 C 302.182 292.470,304.244 289.764,304.466 289.596 C 304.615 289.484,304.860 288.899,305.012 288.296 C 305.163 287.693,305.433 287.200,305.612 287.200 C 305.790 287.200,306.055 286.660,306.200 286.000 C 306.345 285.340,306.615 284.800,306.800 284.800 C 306.985 284.800,307.255 284.262,307.399 283.605 C 307.543 282.947,307.828 282.306,308.031 282.181 C 308.234 282.055,308.400 281.603,308.400 281.176 C 308.400 280.749,308.580 280.400,308.800 280.400 C 309.020 280.400,309.200 279.939,309.200 279.376 C 309.200 278.813,309.363 278.454,309.563 278.577 C 309.762 278.700,309.828 278.429,309.709 277.974 C 309.590 277.520,309.695 276.754,309.941 276.274 C 310.983 274.241,311.989 264.803,311.409 262.494 L 311.159 261.496 302.479 261.749 C 278.938 262.435,281.055 261.964,280.686 266.602 C 280.481 269.173,279.383 272.133,277.804 274.373 C 275.408 277.770,269.480 282.346,268.140 281.832 C 267.820 281.710,267.661 281.775,267.786 281.977 C 268.597 283.290,260.133 284.208,255.400 283.321 C 250.263 282.358,248.906 281.267,232.132 264.606 C 221.570 254.116,204.293 237.262,202.800 235.993 C 202.250 235.526,201.350 234.745,200.800 234.259 C 198.979 232.649,195.424 230.088,193.800 229.217 C 192.920 228.745,191.930 228.206,191.600 228.020 C 191.270 227.833,190.056 227.222,188.902 226.661 L 186.805 225.641 186.581 226.535 M25.478 227.577 C 25.596 228.030,25.852 228.400,26.047 228.400 C 26.586 228.400,26.468 227.754,25.831 227.226 C 25.365 226.839,25.302 226.902,25.478 227.577 M30.197 234.000 C 30.625 234.550,32.177 236.207,33.644 237.681 C 35.111 239.156,36.147 240.448,35.946 240.551 C 35.745 240.655,35.778 240.704,36.020 240.660 C 36.861 240.507,36.580 240.125,33.009 236.573 C 31.034 234.608,29.768 233.450,30.197 234.000 M41.600 243.767 C 41.600 244.262,42.593 245.080,43.569 245.390 C 44.208 245.593,44.414 245.547,44.226 245.243 C 44.076 244.999,43.753 244.800,43.508 244.800 C 43.263 244.800,42.734 244.502,42.331 244.138 C 41.929 243.774,41.600 243.607,41.600 243.767 M47.400 247.200 C 47.536 247.420,47.917 247.600,48.247 247.600 C 48.577 247.600,48.736 247.780,48.600 248.000 C 48.464 248.220,48.543 248.400,48.776 248.400 C 49.474 248.400,49.255 247.658,48.426 247.214 C 47.450 246.692,47.083 246.687,47.400 247.200 M50.400 248.428 C 50.400 248.633,50.835 248.800,51.367 248.800 C 51.898 248.800,52.393 248.951,52.467 249.137 C 52.540 249.322,53.194 249.589,53.920 249.731 C 55.373 250.014,55.360 249.422,53.906 249.086 C 53.408 248.971,52.415 248.692,51.700 248.466 C 50.926 248.222,50.400 248.206,50.400 248.428 M56.970 250.448 C 56.851 250.642,57.438 250.802,58.276 250.805 C 59.114 250.808,60.250 250.923,60.800 251.060 C 61.474 251.228,61.670 251.177,61.400 250.903 C 60.873 250.369,57.249 249.997,56.970 250.448 M258.300 314.693 C 259.235 314.777,260.765 314.777,261.700 314.693 C 262.635 314.609,261.870 314.540,260.000 314.540 C 258.130 314.540,257.365 314.609,258.300 314.693 " stroke="none" fill="#fc3861" fill-rule="evenodd"></path><path id="path1" d="M261.549 147.384 C 261.451 147.483,260.702 147.609,259.885 147.664 L 258.400 147.764 258.460 152.582 C 258.503 156.044,258.599 156.893,258.800 155.600 C 258.967 154.524,259.104 156.895,259.140 161.500 C 259.173 165.735,259.357 169.200,259.548 169.200 C 259.740 169.200,260.016 170.100,260.162 171.200 C 260.308 172.300,260.621 173.200,260.857 173.200 C 261.093 173.200,261.192 173.444,261.078 173.741 C 260.964 174.039,261.214 174.577,261.635 174.937 C 262.056 175.297,262.400 175.875,262.400 176.220 C 262.400 176.565,262.547 176.756,262.727 176.645 C 262.907 176.534,263.307 176.793,263.615 177.221 C 264.163 177.982,264.925 178.000,295.688 178.000 C 313.020 178.000,327.200 178.155,327.200 178.344 C 327.200 178.533,328.218 178.793,329.463 178.922 C 330.707 179.050,331.832 179.323,331.963 179.527 C 332.093 179.732,332.777 180.025,333.482 180.178 C 334.240 180.342,334.865 180.774,335.011 181.234 C 335.146 181.662,335.428 181.906,335.636 181.778 C 335.844 181.650,336.960 182.502,338.117 183.672 C 340.428 186.010,342.658 189.200,341.982 189.200 C 341.746 189.200,341.666 189.383,341.804 189.607 C 341.942 189.830,342.223 189.909,342.428 189.783 C 342.632 189.656,342.800 189.908,342.800 190.343 C 342.800 190.778,342.998 191.199,343.239 191.280 C 343.481 191.360,343.774 192.275,343.891 193.313 C 344.008 194.351,344.261 195.200,344.452 195.200 C 344.643 195.200,344.800 196.910,344.800 199.000 C 344.800 201.267,344.639 202.800,344.400 202.800 C 344.180 202.800,343.997 203.385,343.994 204.100 C 343.989 205.131,343.899 205.276,343.560 204.800 C 343.235 204.343,343.186 204.510,343.356 205.500 C 343.482 206.231,343.409 206.800,343.190 206.800 C 342.976 206.800,342.797 207.205,342.794 207.700 C 342.789 208.447,342.715 208.498,342.359 208.000 C 342.015 207.518,341.969 207.577,342.128 208.300 C 342.236 208.795,342.162 209.200,341.963 209.200 C 341.763 209.200,341.600 209.404,341.600 209.654 C 341.600 209.904,341.150 210.525,340.600 211.035 C 340.050 211.545,339.600 212.161,339.600 212.405 C 339.600 212.648,339.392 212.719,339.138 212.562 C 338.848 212.383,338.785 212.452,338.969 212.749 C 339.271 213.238,337.765 214.762,336.956 214.787 C 336.712 214.794,336.179 215.244,335.771 215.787 C 335.363 216.330,334.528 216.884,333.915 217.019 C 333.302 217.153,332.800 217.427,332.800 217.627 C 332.800 217.827,332.080 218.106,331.200 218.246 C 330.320 218.387,329.600 218.659,329.600 218.851 C 329.600 219.043,329.060 219.200,328.400 219.200 C 327.740 219.200,327.200 219.364,327.200 219.564 C 327.200 219.778,315.340 219.984,298.385 220.064 C 277.987 220.160,269.487 220.329,269.285 220.640 C 269.128 220.883,267.740 221.207,266.200 221.361 C 264.660 221.516,263.229 221.812,263.020 222.021 C 262.811 222.229,262.147 222.400,261.544 222.400 C 260.941 222.400,260.346 222.563,260.223 222.762 C 260.100 222.962,259.611 223.023,259.137 222.899 C 258.546 222.745,258.365 222.820,258.561 223.137 C 258.749 223.442,258.497 223.600,257.824 223.600 C 257.261 223.600,256.800 223.757,256.800 223.949 C 256.800 224.141,256.080 224.413,255.200 224.554 C 254.320 224.694,253.600 224.973,253.600 225.173 C 253.600 225.373,253.060 225.655,252.400 225.800 C 251.740 225.945,251.200 226.229,251.200 226.432 C 251.200 226.634,250.930 226.800,250.600 226.800 C 250.270 226.800,250.000 226.957,250.000 227.150 C 250.000 227.343,249.450 227.610,248.777 227.745 C 248.104 227.879,247.300 228.217,246.991 228.495 C 245.615 229.730,245.199 230.000,244.673 230.000 C 244.364 230.000,243.774 230.450,243.361 231.000 C 242.948 231.550,242.428 232.001,242.205 232.002 C 241.982 232.003,241.235 232.533,240.545 233.180 C 239.855 233.827,239.210 234.277,239.113 234.180 C 239.016 234.083,238.640 234.318,238.278 234.702 C 237.916 235.086,235.905 237.131,233.810 239.246 C 231.714 241.361,230.000 243.302,230.000 243.558 C 230.000 243.815,229.730 244.129,229.400 244.255 C 228.489 244.605,228.682 245.929,229.793 246.959 C 230.340 247.465,230.655 248.012,230.493 248.173 C 230.332 248.335,230.404 248.407,230.652 248.333 C 231.108 248.199,231.836 248.845,236.592 253.600 C 239.178 256.186,239.184 256.192,240.435 257.452 C 241.062 258.084,241.805 258.811,242.087 259.068 C 242.369 259.325,244.116 261.080,245.970 262.968 C 247.823 264.856,249.507 266.400,249.713 266.400 C 249.918 266.400,249.978 266.679,249.847 267.021 C 249.711 267.377,249.778 267.537,250.005 267.397 C 250.222 267.263,250.400 267.343,250.400 267.576 C 250.400 267.809,250.670 268.000,251.000 268.000 C 251.330 268.000,251.600 267.809,251.600 267.576 C 251.600 267.343,251.784 267.267,252.010 267.406 C 252.235 267.545,252.394 267.511,252.363 267.330 C 252.231 266.574,252.439 266.018,253.100 265.357 C 253.485 264.972,253.800 264.512,253.800 264.334 C 253.800 263.576,259.332 257.466,259.692 257.826 C 259.801 257.935,260.305 257.503,260.812 256.867 C 261.463 256.049,261.978 255.770,262.567 255.914 C 263.025 256.026,263.264 255.970,263.097 255.789 C 262.725 255.386,264.734 254.006,265.700 254.003 C 266.085 254.001,266.400 253.801,266.400 253.557 C 266.400 253.314,266.664 253.216,266.987 253.340 C 267.310 253.464,267.681 253.393,267.811 253.183 C 267.941 252.972,268.487 252.800,269.024 252.800 C 269.561 252.800,270.000 252.620,270.000 252.400 C 270.000 252.180,270.540 252.000,271.200 252.000 C 271.860 252.000,272.400 251.846,272.400 251.657 C 272.400 251.469,285.405 251.181,301.300 251.019 C 317.195 250.856,330.290 250.586,330.400 250.420 C 330.510 250.253,332.040 249.990,333.800 249.835 C 335.560 249.680,337.060 249.384,337.133 249.177 C 337.207 248.969,337.691 248.800,338.210 248.800 C 338.728 248.800,339.273 248.605,339.420 248.368 C 339.569 248.127,340.127 248.045,340.677 248.184 C 341.314 248.343,341.575 248.284,341.410 248.016 C 341.257 247.769,341.570 247.600,342.176 247.600 C 342.739 247.600,343.200 247.428,343.200 247.218 C 343.200 247.008,343.830 246.718,344.600 246.574 C 345.370 246.429,346.000 246.188,346.000 246.037 C 346.000 245.887,346.810 245.430,347.800 245.022 C 348.790 244.613,349.603 244.082,349.606 243.840 C 349.609 243.598,349.780 243.665,349.985 243.989 C 350.304 244.493,350.395 244.479,350.621 243.889 C 350.767 243.510,351.130 243.200,351.429 243.200 C 351.728 243.200,352.491 242.705,353.124 242.100 C 355.243 240.077,356.400 239.202,356.400 239.623 C 356.400 239.984,357.162 239.249,358.818 237.291 C 359.054 237.011,359.415 236.886,359.619 237.012 C 359.824 237.138,359.884 236.962,359.753 236.621 C 359.535 236.055,359.992 235.800,360.930 235.963 C 361.111 235.994,361.145 235.834,361.004 235.607 C 360.767 235.224,361.723 233.898,362.052 234.152 C 362.134 234.215,362.515 233.937,362.900 233.533 C 363.297 233.117,363.400 232.800,363.139 232.800 C 362.885 232.800,363.321 232.175,364.109 231.410 C 364.896 230.646,365.655 229.656,365.797 229.210 C 365.938 228.765,366.202 228.400,366.384 228.400 C 366.565 228.400,366.826 227.950,366.964 227.400 C 367.102 226.850,367.392 226.400,367.608 226.400 C 367.823 226.400,368.000 226.149,368.000 225.843 C 368.000 225.536,368.270 225.182,368.600 225.055 C 368.930 224.929,369.200 224.449,369.200 223.989 C 369.200 223.529,369.360 223.252,369.556 223.373 C 369.752 223.494,370.030 222.965,370.174 222.196 C 370.318 221.428,370.608 220.800,370.818 220.800 C 371.028 220.800,371.200 220.530,371.200 220.200 C 371.200 219.870,371.374 219.600,371.587 219.600 C 371.801 219.600,371.878 219.348,371.760 219.040 C 371.642 218.733,371.738 218.362,371.973 218.217 C 372.208 218.072,372.400 217.593,372.400 217.153 C 372.400 216.713,372.563 216.454,372.762 216.577 C 372.962 216.700,373.249 215.901,373.400 214.800 C 373.551 213.700,373.829 212.800,374.018 212.800 C 374.206 212.800,374.482 211.720,374.632 210.400 C 374.781 209.080,375.060 208.000,375.252 208.000 C 375.443 208.000,375.600 206.999,375.600 205.776 C 375.600 204.396,375.752 203.647,376.000 203.800 C 376.258 203.959,376.400 202.404,376.400 199.424 C 376.400 196.608,376.244 194.800,376.000 194.800 C 375.780 194.800,375.600 193.810,375.600 192.600 C 375.600 191.390,375.446 190.400,375.257 190.400 C 375.068 190.400,374.797 189.285,374.655 187.922 C 374.513 186.560,374.235 185.345,374.037 185.222 C 373.840 185.100,373.550 184.145,373.394 183.100 C 373.237 182.055,372.950 181.200,372.755 181.200 C 372.560 181.200,372.400 180.840,372.400 180.400 C 372.400 179.960,372.208 179.600,371.973 179.600 C 371.720 179.600,371.656 179.254,371.816 178.750 C 371.997 178.178,371.941 177.989,371.643 178.174 C 371.374 178.340,371.200 178.124,371.200 177.624 C 371.200 177.171,371.034 176.800,370.832 176.800 C 370.629 176.800,370.345 176.260,370.200 175.600 C 370.055 174.940,369.771 174.400,369.568 174.400 C 369.366 174.400,369.200 174.130,369.200 173.800 C 369.200 173.470,369.040 173.200,368.843 173.200 C 368.647 173.200,368.374 172.750,368.236 172.200 C 368.098 171.650,367.798 171.200,367.569 171.200 C 367.340 171.200,367.270 171.010,367.413 170.779 C 367.556 170.547,367.342 170.050,366.937 169.673 C 366.085 168.882,365.422 167.892,364.608 166.200 C 364.291 165.540,364.024 165.149,364.016 165.331 C 363.994 165.798,361.600 163.349,361.600 162.859 C 361.600 162.292,359.000 159.600,358.453 159.600 C 358.204 159.600,357.986 159.285,357.968 158.900 C 357.951 158.515,357.850 158.414,357.744 158.675 C 357.500 159.273,356.000 158.079,356.000 157.287 C 356.000 156.993,355.820 156.864,355.600 157.000 C 355.380 157.136,355.200 157.042,355.200 156.790 C 355.200 156.539,354.975 156.410,354.700 156.504 C 354.425 156.598,353.930 156.369,353.600 155.995 C 353.270 155.621,352.595 155.187,352.100 155.030 C 351.605 154.874,351.200 154.593,351.200 154.405 C 351.200 154.217,350.660 153.945,350.000 153.800 C 349.340 153.655,348.800 153.371,348.800 153.168 C 348.800 152.966,348.530 152.800,348.200 152.800 C 347.870 152.800,347.600 152.628,347.600 152.418 C 347.600 152.208,346.970 151.918,346.200 151.774 C 345.430 151.629,344.800 151.362,344.800 151.180 C 344.800 150.998,343.992 150.728,343.004 150.580 C 342.016 150.432,341.307 150.151,341.428 149.955 C 341.548 149.760,341.142 149.597,340.524 149.594 C 339.619 149.589,339.517 149.505,340.000 149.162 C 340.449 148.843,340.173 148.785,338.900 148.930 C 337.965 149.037,337.099 148.961,336.976 148.762 C 336.853 148.563,336.148 148.400,335.410 148.400 C 334.671 148.400,333.992 148.175,333.900 147.900 C 333.738 147.415,262.030 146.903,261.549 147.384 M197.800 148.000 C 197.664 148.220,196.841 148.400,195.971 148.400 C 195.101 148.400,194.008 148.625,193.542 148.900 C 192.943 149.254,192.648 149.271,192.534 148.958 C 192.348 148.450,190.400 148.713,190.400 149.247 C 190.400 149.441,189.950 149.600,189.400 149.600 C 188.850 149.600,188.400 149.757,188.400 149.948 C 188.400 150.140,187.500 150.416,186.400 150.562 C 185.300 150.708,184.400 150.986,184.400 151.179 C 184.400 151.372,183.680 151.651,182.800 151.800 C 181.920 151.949,181.200 152.234,181.200 152.435 C 181.200 152.636,180.840 152.800,180.400 152.800 C 179.960 152.800,179.600 152.966,179.600 153.168 C 179.600 153.371,179.060 153.655,178.400 153.800 C 177.740 153.945,177.200 154.215,177.200 154.400 C 177.200 154.585,176.660 154.855,176.000 155.000 C 175.340 155.145,174.800 155.417,174.800 155.605 C 174.800 155.793,174.395 156.074,173.900 156.230 C 173.405 156.387,172.730 156.823,172.400 157.200 C 172.070 157.577,171.395 158.013,170.900 158.170 C 170.405 158.326,170.000 158.622,170.000 158.827 C 170.000 159.032,169.758 159.200,169.462 159.200 C 169.166 159.200,168.598 159.560,168.200 160.000 C 167.802 160.440,167.311 160.800,167.110 160.800 C 166.715 160.800,158.000 169.430,158.000 169.821 C 158.000 169.951,157.775 170.308,157.500 170.615 C 156.338 171.911,156.000 172.386,156.000 172.727 C 156.000 172.926,155.548 173.428,154.995 173.843 C 154.442 174.258,154.064 174.791,154.155 175.027 C 154.246 175.264,153.994 175.661,153.596 175.910 C 153.198 176.158,152.755 176.895,152.612 177.548 C 152.468 178.200,152.081 178.837,151.750 178.964 C 151.420 179.091,151.261 179.376,151.398 179.597 C 151.535 179.819,151.437 180.000,151.181 180.000 C 150.924 180.000,150.818 180.270,150.945 180.600 C 151.071 180.930,151.001 181.200,150.787 181.200 C 150.574 181.200,150.400 181.571,150.400 182.024 C 150.400 182.477,150.236 182.746,150.035 182.622 C 149.835 182.498,149.549 183.117,149.400 183.998 C 149.251 184.879,148.977 185.600,148.789 185.600 C 148.602 185.600,148.328 186.410,148.179 187.400 C 148.031 188.390,147.750 189.200,147.555 189.200 C 147.360 189.200,147.200 189.571,147.200 190.024 C 147.200 190.490,147.020 190.736,146.785 190.591 C 146.530 190.433,146.378 190.845,146.389 191.667 C 146.417 193.741,145.943 196.171,145.448 196.485 C 145.121 196.694,144.992 213.528,144.971 259.085 C 144.955 293.358,145.056 319.780,145.195 317.800 C 145.335 315.820,145.483 314.606,145.524 315.103 C 145.566 315.599,146.085 316.409,146.678 316.903 C 147.271 317.396,148.137 318.160,148.602 318.600 C 149.067 319.040,150.109 319.902,150.918 320.516 C 151.727 321.130,154.434 323.380,156.934 325.516 C 159.434 327.652,163.963 331.470,166.997 334.000 C 172.982 338.990,174.918 340.631,178.797 344.000 C 180.190 345.210,181.706 346.458,182.165 346.772 C 182.624 347.087,184.350 348.541,186.000 350.003 C 187.650 351.465,189.900 353.368,191.001 354.231 C 192.933 355.746,195.331 357.746,208.200 368.577 C 215.281 374.536,215.034 374.129,212.119 375.032 C 210.844 375.427,209.710 375.870,209.600 376.016 C 208.325 377.714,185.607 377.701,183.400 376.001 C 182.659 375.429,180.484 375.140,180.214 375.577 C 180.056 375.832,180.358 376.000,180.976 376.000 C 181.539 376.000,182.000 376.161,182.000 376.358 C 182.000 376.731,184.572 377.203,186.529 377.190 C 187.150 377.186,187.560 377.342,187.440 377.535 C 186.874 378.451,205.008 378.487,205.606 377.571 C 205.786 377.297,208.493 376.920,211.000 376.820 C 211.677 376.793,211.708 376.722,211.200 376.359 C 210.721 376.017,210.786 375.972,211.524 376.134 C 212.077 376.256,212.529 376.128,212.649 375.816 C 212.759 375.529,213.543 375.183,214.391 375.048 C 215.239 374.912,215.993 374.627,216.066 374.413 C 216.140 374.200,216.806 373.980,217.547 373.924 C 218.287 373.868,218.981 373.593,219.089 373.311 C 219.197 373.030,219.536 372.800,219.843 372.800 C 220.149 372.800,220.400 372.640,220.400 372.443 C 220.400 372.247,220.850 371.974,221.400 371.836 C 221.950 371.698,222.400 371.408,222.400 371.192 C 222.400 370.977,222.670 370.800,223.000 370.800 C 223.330 370.800,223.600 370.601,223.600 370.357 C 223.600 370.114,223.870 370.018,224.199 370.144 C 224.566 370.285,225.050 369.991,225.445 369.387 C 225.801 368.844,226.442 368.400,226.870 368.400 C 227.297 368.400,227.565 368.265,227.465 368.100 C 227.365 367.935,227.714 367.477,228.241 367.081 C 228.929 366.566,229.204 366.509,229.214 366.881 C 229.222 367.167,229.456 366.989,229.735 366.487 C 230.014 365.986,230.367 365.701,230.521 365.854 C 230.674 366.008,230.800 365.930,230.800 365.681 C 230.800 365.432,232.244 363.782,234.010 362.014 C 235.775 360.246,237.082 358.800,236.914 358.800 C 236.746 358.800,237.101 358.343,237.704 357.784 C 238.307 357.225,238.800 356.587,238.800 356.367 C 238.800 355.947,239.235 355.343,240.648 353.796 C 241.115 353.285,241.613 352.402,241.756 351.834 C 241.899 351.265,242.192 350.800,242.408 350.800 C 242.623 350.800,242.800 350.530,242.800 350.200 C 242.800 349.870,242.974 349.600,243.187 349.600 C 243.401 349.600,243.471 349.330,243.345 349.000 C 243.218 348.670,243.314 348.400,243.557 348.400 C 243.801 348.400,244.003 347.995,244.006 347.500 C 244.011 346.754,244.085 346.703,244.438 347.200 C 244.767 347.662,244.810 347.547,244.625 346.700 C 244.486 346.063,244.556 345.600,244.792 345.600 C 245.017 345.600,245.200 345.150,245.200 344.600 C 245.200 344.050,245.363 343.600,245.562 343.600 C 245.762 343.600,246.049 342.700,246.200 341.600 C 246.351 340.499,246.620 339.689,246.796 339.798 C 246.973 339.907,247.244 338.557,247.400 336.798 C 247.556 335.039,247.845 333.600,248.042 333.600 C 248.439 333.600,248.542 325.236,248.157 324.233 C 248.002 323.828,247.426 323.600,246.557 323.600 C 245.811 323.600,245.200 323.441,245.200 323.246 C 245.200 323.051,244.210 322.768,243.000 322.617 C 241.790 322.466,240.800 322.196,240.800 322.017 C 240.800 321.837,239.990 321.569,239.000 321.421 C 238.010 321.272,237.200 320.982,237.200 320.775 C 237.200 320.569,236.840 320.400,236.400 320.400 C 235.960 320.400,235.600 320.212,235.600 319.982 C 235.600 319.753,235.375 319.592,235.100 319.626 C 234.288 319.725,232.793 319.135,233.001 318.798 C 233.107 318.628,232.565 318.370,231.796 318.226 C 231.028 318.082,230.400 317.792,230.400 317.582 C 230.400 317.372,230.130 317.200,229.800 317.200 C 229.470 317.200,229.200 317.009,229.200 316.776 C 229.200 316.543,229.019 316.465,228.797 316.602 C 228.372 316.864,227.098 315.835,227.433 315.500 C 227.540 315.393,227.057 315.191,226.359 315.052 C 225.661 314.912,224.693 314.369,224.207 313.846 C 223.722 313.322,222.937 312.770,222.462 312.620 C 221.988 312.469,221.600 312.178,221.600 311.973 C 221.600 311.768,221.319 311.600,220.976 311.600 C 220.633 311.600,220.456 311.433,220.582 311.229 C 220.708 311.025,220.449 310.743,220.006 310.602 C 219.563 310.461,219.200 310.178,219.200 309.973 C 219.200 309.768,218.885 309.597,218.500 309.594 C 217.896 309.589,217.882 309.530,218.400 309.163 C 218.933 308.786,218.933 308.757,218.400 308.903 C 217.890 309.042,217.784 310.630,217.693 319.533 C 217.627 326.054,217.438 330.000,217.193 330.000 C 216.977 330.000,216.800 330.641,216.800 331.424 C 216.800 332.307,216.642 332.750,216.384 332.590 C 216.114 332.423,216.059 332.696,216.227 333.366 C 216.389 334.012,216.320 334.400,216.043 334.400 C 215.800 334.400,215.600 334.760,215.600 335.200 C 215.600 335.640,215.375 335.955,215.100 335.900 C 214.825 335.845,214.645 336.025,214.700 336.300 C 214.755 336.575,214.626 336.800,214.413 336.800 C 214.199 336.800,214.140 337.100,214.281 337.466 C 214.440 337.882,214.377 338.033,214.111 337.868 C 213.871 337.720,213.579 338.029,213.442 338.576 C 213.308 339.110,212.836 339.662,212.393 339.802 C 211.951 339.943,211.684 340.212,211.800 340.400 C 211.916 340.588,211.635 340.862,211.176 341.008 C 210.716 341.154,210.437 341.371,210.556 341.490 C 210.887 341.821,209.074 343.116,207.850 343.423 C 207.252 343.573,206.853 343.786,206.962 343.896 C 207.313 344.246,206.232 345.055,205.000 345.364 C 204.344 345.529,203.678 345.874,203.519 346.132 C 203.115 346.785,190.489 346.790,190.085 346.137 C 189.927 345.882,189.125 345.547,188.303 345.393 C 187.480 345.239,186.906 344.952,187.027 344.756 C 187.148 344.560,186.956 344.400,186.600 344.400 C 186.208 344.400,186.067 344.216,186.242 343.932 C 186.430 343.628,186.322 343.544,185.932 343.694 C 185.576 343.831,185.042 343.537,184.616 342.970 C 184.222 342.445,183.765 342.098,183.600 342.200 C 183.435 342.302,182.811 341.931,182.213 341.377 C 181.244 340.479,180.933 339.862,180.831 338.633 C 180.814 338.432,180.691 338.376,180.557 338.509 C 180.147 338.919,179.287 337.842,179.514 337.202 C 179.631 336.871,179.587 336.726,179.416 336.881 C 178.960 337.293,178.082 336.269,177.758 334.948 C 177.603 334.317,177.314 333.693,177.116 333.563 C 176.917 333.432,176.651 332.312,176.523 331.073 C 176.395 329.834,176.135 328.917,175.945 329.034 C 175.752 329.153,175.600 301.630,175.600 266.624 C 175.600 232.077,175.754 204.000,175.943 204.000 C 176.132 204.000,176.403 202.885,176.545 201.522 C 176.687 200.160,176.955 198.945,177.139 198.822 C 177.323 198.700,177.594 197.986,177.740 197.236 C 177.886 196.485,178.380 195.609,178.837 195.289 C 179.356 194.925,179.595 194.423,179.472 193.953 C 179.364 193.539,179.438 193.200,179.637 193.200 C 179.837 193.200,180.000 192.996,180.000 192.746 C 180.000 192.496,180.450 191.875,181.000 191.365 C 181.550 190.855,182.000 190.200,182.000 189.908 C 182.000 189.273,183.434 187.967,183.766 188.300 C 183.895 188.428,184.000 188.349,184.000 188.123 C 184.000 187.484,186.553 184.932,187.488 184.635 C 187.949 184.489,188.427 184.106,188.550 183.785 C 188.674 183.463,189.051 183.200,189.387 183.200 C 189.724 183.200,190.000 183.028,190.000 182.818 C 190.000 182.608,190.628 182.318,191.396 182.174 C 192.165 182.030,192.694 181.752,192.573 181.556 C 192.452 181.360,192.708 181.200,193.143 181.200 C 193.578 181.200,194.024 180.975,194.135 180.700 C 194.289 180.319,194.344 180.325,194.368 180.729 C 194.392 181.129,194.552 181.105,195.029 180.629 C 195.374 180.283,196.079 180.000,196.595 180.000 C 197.111 180.000,197.595 179.816,197.670 179.591 C 197.746 179.362,199.905 179.069,202.561 178.926 L 207.317 178.671 207.078 164.036 C 206.782 145.835,207.308 147.600,202.177 147.600 C 199.855 147.600,197.939 147.775,197.800 148.000 M176.187 246.800 C 176.187 259.230,176.238 264.315,176.300 258.100 C 176.362 251.885,176.362 241.715,176.300 235.500 C 176.238 229.285,176.187 234.370,176.187 246.800 M176.180 286.600 C 176.180 294.300,176.234 297.393,176.299 293.474 C 176.365 289.555,176.365 283.255,176.299 279.474 C 176.234 275.693,176.180 278.900,176.180 286.600 M144.995 333.800 C 145.155 335.780,145.428 337.490,145.602 337.600 C 145.776 337.710,146.048 338.835,146.205 340.100 C 146.363 341.365,146.651 342.400,146.846 342.400 C 147.041 342.400,147.200 342.850,147.200 343.400 C 147.200 343.950,147.388 344.400,147.618 344.400 C 148.069 344.400,147.730 341.707,147.190 341.000 C 146.885 340.602,146.173 336.884,145.641 332.914 C 145.163 329.354,144.688 330.006,144.995 333.800 M148.206 346.050 C 148.366 346.792,148.655 347.460,148.849 347.533 C 149.042 347.607,149.200 347.999,149.200 348.405 C 149.200 348.811,149.440 349.382,149.733 349.675 C 150.025 349.968,150.389 350.701,150.540 351.304 C 150.691 351.907,150.992 352.400,151.208 352.400 C 151.423 352.400,151.600 352.655,151.600 352.967 C 151.600 353.278,151.790 353.597,152.022 353.674 C 152.254 353.751,152.486 354.101,152.537 354.451 C 152.588 354.801,152.940 355.397,153.319 355.776 C 153.698 356.155,153.906 356.629,153.781 356.831 C 153.657 357.032,154.015 357.406,154.577 357.663 C 155.140 357.919,155.600 358.252,155.600 358.403 C 155.600 358.554,155.960 359.093,156.400 359.600 C 156.840 360.107,157.200 360.765,157.200 361.061 C 157.200 361.358,157.335 361.601,157.500 361.602 C 157.665 361.603,158.375 362.143,159.078 362.802 C 159.781 363.461,160.557 364.000,160.802 364.000 C 161.047 364.000,161.136 364.180,161.000 364.400 C 160.864 364.620,160.931 364.800,161.148 364.800 C 161.365 364.800,162.211 365.430,163.027 366.200 C 163.844 366.970,164.691 367.600,164.909 367.600 C 165.127 367.600,165.597 367.927,165.953 368.328 C 166.309 368.728,166.926 369.177,167.325 369.325 C 167.724 369.473,167.939 369.776,167.802 369.997 C 167.665 370.219,167.878 370.401,168.276 370.403 C 168.674 370.404,169.540 370.763,170.200 371.200 C 171.683 372.182,172.747 372.301,172.000 371.400 C 171.726 371.070,171.340 370.800,171.142 370.800 C 170.835 370.800,168.254 369.242,167.000 368.299 C 158.660 362.028,153.761 356.352,150.092 348.708 C 149.381 347.228,148.800 345.844,148.800 345.632 C 148.800 345.420,148.601 345.124,148.357 344.974 C 148.047 344.782,148.001 345.103,148.206 346.050 M172.800 372.400 C 172.800 372.620,173.081 372.800,173.424 372.800 C 173.767 372.800,173.946 372.964,173.822 373.165 C 173.698 373.365,174.318 373.651,175.200 373.800 C 176.082 373.949,176.702 374.235,176.578 374.435 C 176.454 374.636,176.709 374.800,177.144 374.800 C 177.579 374.800,178.219 374.909,178.567 375.043 C 178.915 375.176,179.200 375.086,179.200 374.843 C 179.200 374.599,179.012 374.400,178.783 374.400 C 178.554 374.400,177.212 373.860,175.800 373.200 C 172.952 371.868,172.800 371.828,172.800 372.400 " stroke="none" fill="#3d507e" fill-rule="evenodd"></path><path id="path2" d="M18.615 207.100 C 18.780 207.485,19.088 209.060,19.299 210.600 C 19.511 212.140,19.837 213.589,20.024 213.820 C 20.212 214.051,20.486 214.996,20.634 215.920 C 20.781 216.844,21.059 217.600,21.251 217.600 C 21.443 217.600,21.600 217.896,21.600 218.259 C 21.600 219.262,25.966 227.875,27.103 229.114 C 27.379 229.416,27.808 230.042,28.057 230.506 C 28.613 231.546,28.681 231.633,31.286 234.638 C 34.249 238.056,39.729 242.892,41.600 243.739 C 41.930 243.888,43.100 244.554,44.200 245.218 C 45.300 245.882,46.470 246.521,46.800 246.638 C 47.130 246.755,47.940 247.095,48.600 247.393 C 49.260 247.690,50.880 248.249,52.200 248.633 C 53.520 249.017,54.780 249.464,55.000 249.626 C 55.220 249.789,56.660 250.051,58.200 250.209 C 59.740 250.368,61.219 250.672,61.487 250.887 C 61.934 251.245,71.149 250.941,71.567 250.554 C 71.658 250.469,71.388 250.398,70.967 250.394 C 70.305 250.390,66.301 247.280,59.600 241.568 C 57.131 239.463,56.402 238.848,54.189 237.000 C 53.136 236.120,51.364 234.606,50.252 233.636 C 49.140 232.666,48.043 231.726,47.815 231.547 C 47.344 231.177,43.128 227.703,40.597 225.600 C 39.670 224.830,36.037 221.770,32.522 218.800 C 29.007 215.830,25.355 212.770,24.405 212.000 C 21.093 209.313,19.200 207.473,19.200 206.938 C 19.200 206.642,19.001 206.400,18.757 206.400 C 18.488 206.400,18.432 206.674,18.615 207.100 " stroke="none" fill="#fc0429" fill-rule="evenodd"></path><path id="path3" d="M189.359 20.867 C 189.245 21.050,188.443 21.200,187.576 21.200 C 186.709 21.200,186.000 21.359,186.000 21.554 C 186.000 21.749,185.013 22.031,183.806 22.182 C 182.600 22.333,181.522 22.603,181.411 22.783 C 181.300 22.962,180.577 23.228,179.804 23.373 C 179.032 23.518,178.400 23.808,178.400 24.018 C 178.400 24.228,177.950 24.400,177.400 24.400 C 176.850 24.400,176.400 24.580,176.400 24.800 C 176.400 25.020,176.175 25.206,175.900 25.214 C 175.625 25.221,174.680 25.575,173.800 26.000 C 172.920 26.425,171.975 26.779,171.700 26.786 C 171.425 26.794,171.200 26.937,171.200 27.105 C 171.200 27.411,170.015 28.133,168.700 28.629 C 168.315 28.774,168.000 29.052,168.000 29.247 C 168.000 29.441,167.724 29.600,167.387 29.600 C 167.051 29.600,166.671 29.870,166.545 30.200 C 166.418 30.530,166.072 30.800,165.775 30.800 C 165.479 30.800,164.786 31.250,164.236 31.800 C 163.686 32.350,163.108 32.800,162.952 32.800 C 162.795 32.800,162.382 33.068,162.034 33.395 C 158.951 36.289,156.625 38.689,155.704 39.924 C 155.100 40.736,154.379 41.544,154.102 41.720 C 153.826 41.896,153.600 42.210,153.600 42.419 C 153.600 42.628,152.993 43.654,152.250 44.699 C 150.696 46.888,148.000 52.370,148.000 53.342 C 148.000 53.704,147.820 54.000,147.600 54.000 C 147.380 54.000,147.200 54.349,147.200 54.776 C 147.200 55.203,147.037 55.654,146.837 55.777 C 146.638 55.900,146.346 56.946,146.189 58.100 C 146.032 59.255,145.748 60.299,145.559 60.419 C 145.370 60.540,145.107 62.520,144.975 64.819 C 144.802 67.830,144.854 68.832,145.161 68.400 C 145.396 68.070,145.591 67.227,145.594 66.526 C 145.601 64.962,146.556 60.164,147.449 57.200 C 150.768 46.187,158.300 36.311,167.800 30.513 C 169.120 29.708,170.290 28.948,170.400 28.824 C 171.164 27.967,179.578 24.325,183.000 23.370 C 184.320 23.002,185.760 22.556,186.200 22.380 C 186.640 22.204,188.704 21.858,190.787 21.610 C 195.230 21.081,195.510 20.957,192.926 20.663 C 190.522 20.389,189.622 20.441,189.359 20.867 M200.600 20.754 C 199.262 21.077,199.943 21.230,205.400 21.833 C 206.720 21.979,207.980 22.233,208.200 22.397 C 208.420 22.561,209.297 22.821,210.149 22.975 C 211.001 23.129,211.991 23.404,212.349 23.586 C 212.707 23.769,213.810 24.230,214.800 24.612 C 216.757 25.368,220.689 27.310,222.600 28.467 C 223.260 28.866,224.070 29.320,224.400 29.474 C 224.730 29.629,225.214 29.945,225.476 30.178 C 225.738 30.410,226.602 31.050,227.396 31.600 C 231.195 34.230,236.726 39.706,239.063 43.150 C 239.902 44.388,240.696 45.490,240.827 45.600 C 241.070 45.804,243.810 51.408,244.965 54.060 C 245.314 54.864,245.600 55.888,245.600 56.337 C 245.600 56.786,245.780 57.264,246.000 57.400 C 246.220 57.536,246.400 58.087,246.400 58.624 C 246.400 59.161,246.580 59.600,246.800 59.600 C 247.301 59.600,247.331 57.328,246.835 57.022 C 246.634 56.897,246.348 56.078,246.200 55.200 C 246.052 54.322,245.786 53.515,245.611 53.407 C 245.435 53.298,245.172 52.577,245.027 51.804 C 244.882 51.032,244.592 50.400,244.382 50.400 C 244.172 50.400,244.000 50.130,244.000 49.800 C 244.000 49.470,243.820 49.200,243.600 49.200 C 243.380 49.200,243.200 48.995,243.200 48.744 C 243.200 48.039,241.499 44.800,241.129 44.800 C 240.948 44.800,240.800 44.530,240.800 44.200 C 240.800 43.870,240.661 43.600,240.491 43.600 C 240.321 43.600,239.838 42.961,239.417 42.180 C 238.996 41.399,237.983 40.155,237.164 39.415 C 236.346 38.676,235.557 37.695,235.411 37.236 C 235.265 36.776,234.907 36.400,234.616 36.400 C 234.324 36.400,233.982 36.130,233.855 35.800 C 233.729 35.470,233.450 35.200,233.236 35.200 C 233.022 35.200,232.045 34.435,231.065 33.500 C 228.674 31.220,227.197 30.000,226.826 30.000 C 226.658 30.000,225.775 29.460,224.863 28.800 C 223.952 28.140,223.025 27.600,222.803 27.600 C 222.582 27.600,222.400 27.434,222.400 27.232 C 222.400 27.029,221.860 26.745,221.200 26.600 C 220.540 26.455,220.000 26.171,220.000 25.968 C 220.000 25.766,219.775 25.596,219.500 25.591 C 219.225 25.586,217.920 25.050,216.600 24.400 C 215.280 23.750,213.885 23.214,213.500 23.209 C 213.115 23.204,212.800 23.033,212.800 22.829 C 212.800 22.625,211.810 22.334,210.600 22.183 C 209.390 22.032,208.400 21.767,208.400 21.596 C 208.400 21.012,202.273 20.351,200.600 20.754 M194.434 51.552 C 194.041 51.814,194.716 51.992,196.634 52.135 C 200.225 52.402,202.400 52.807,202.400 53.209 C 202.400 53.385,203.120 53.651,204.000 53.800 C 204.880 53.949,205.600 54.215,205.600 54.392 C 205.600 54.569,206.087 54.835,206.682 54.985 C 207.277 55.134,208.014 55.613,208.319 56.049 C 208.625 56.485,209.054 56.782,209.273 56.709 C 209.786 56.538,213.095 59.838,213.412 60.838 C 213.545 61.257,213.807 61.600,213.995 61.600 C 214.183 61.600,214.455 62.140,214.600 62.800 C 214.745 63.460,215.009 64.000,215.186 64.000 C 215.364 64.000,215.630 64.806,215.778 65.791 C 215.925 66.776,216.216 67.686,216.423 67.814 C 216.630 67.942,216.800 69.016,216.800 70.200 C 216.800 71.384,217.005 72.479,217.255 72.634 C 217.585 72.838,217.658 72.053,217.523 69.757 C 217.157 63.567,212.706 57.007,206.987 54.230 C 205.674 53.592,204.256 52.900,203.836 52.692 C 202.104 51.834,195.258 51.004,194.434 51.552 M188.100 53.251 C 186.505 53.925,185.200 54.640,185.200 54.838 C 185.200 55.037,184.958 55.200,184.662 55.200 C 183.004 55.200,177.504 62.255,176.397 65.800 C 176.122 66.680,175.696 67.850,175.449 68.400 C 174.833 69.774,174.567 116.991,175.177 116.614 C 175.466 116.436,175.600 109.406,175.600 94.400 C 175.600 82.326,175.753 72.352,175.941 72.237 C 176.128 72.121,176.390 70.731,176.523 69.148 C 176.656 67.564,176.938 66.162,177.150 66.031 C 177.363 65.899,177.660 65.299,177.812 64.696 C 177.963 64.093,178.203 63.600,178.346 63.600 C 178.488 63.600,178.855 63.015,179.161 62.300 C 179.872 60.638,185.297 55.291,186.605 54.963 C 187.152 54.826,187.600 54.553,187.600 54.357 C 187.600 54.160,187.870 54.000,188.200 54.000 C 188.530 54.000,188.800 53.837,188.800 53.637 C 188.800 53.438,189.140 53.364,189.555 53.472 C 189.970 53.581,190.431 53.474,190.578 53.235 C 190.726 52.996,191.467 52.800,192.224 52.800 C 192.981 52.800,193.600 52.620,193.600 52.400 C 193.600 51.630,190.975 52.036,188.100 53.251 M246.995 61.500 C 247.820 65.620,247.953 72.280,248.137 118.600 C 248.329 166.937,248.413 170.183,249.584 174.200 C 251.466 180.656,253.446 183.174,267.592 197.106 C 273.757 203.176,278.800 208.273,278.800 208.431 C 278.800 208.852,274.095 209.600,271.444 209.600 C 270.018 209.600,269.246 209.751,269.400 210.000 C 269.536 210.221,271.330 210.400,273.400 210.400 C 275.470 210.400,277.264 210.221,277.400 210.000 C 277.536 209.780,278.177 209.600,278.824 209.600 C 280.860 209.600,280.220 208.335,276.171 204.360 C 274.065 202.292,272.130 200.371,271.871 200.090 C 271.405 199.586,262.001 190.265,260.984 189.300 C 260.694 189.025,260.297 188.800,260.101 188.800 C 259.904 188.800,259.216 188.129,258.572 187.309 C 257.927 186.489,256.815 185.162,256.100 184.360 C 255.385 183.559,254.800 182.700,254.800 182.452 C 254.800 182.203,254.623 182.000,254.408 182.000 C 254.192 182.000,253.902 181.550,253.764 181.000 C 253.626 180.450,253.398 179.998,253.257 179.996 C 253.115 179.994,252.645 179.184,252.210 178.196 C 251.776 177.208,251.301 176.400,251.156 176.400 C 251.010 176.400,250.763 175.545,250.606 174.500 C 250.450 173.455,250.114 172.472,249.861 172.315 C 249.519 172.103,249.332 158.609,249.137 120.115 C 248.882 69.905,248.751 63.434,247.966 62.620 C 247.765 62.411,247.600 61.736,247.600 61.120 C 247.600 60.504,247.396 60.000,247.148 60.000 C 246.838 60.000,246.790 60.474,246.995 61.500 M144.301 69.600 C 144.137 69.930,143.937 81.990,143.858 96.400 C 143.702 124.854,143.686 125.211,142.398 127.651 C 142.209 128.009,141.932 128.954,141.783 129.751 C 141.633 130.548,141.351 131.200,141.155 131.200 C 140.960 131.200,140.800 131.428,140.800 131.707 C 140.800 131.986,140.344 132.886,139.786 133.707 C 139.228 134.528,138.874 135.200,138.999 135.200 C 139.124 135.200,137.700 136.730,135.834 138.600 C 133.968 140.470,132.252 142.000,132.021 142.000 C 131.789 142.000,131.600 142.168,131.600 142.373 C 131.600 142.578,131.195 142.872,130.700 143.027 C 130.205 143.181,129.710 143.419,129.600 143.554 C 129.232 144.006,126.742 145.200,126.168 145.200 C 125.855 145.200,125.600 145.374,125.600 145.586 C 125.600 145.799,124.696 146.092,123.591 146.239 C 122.486 146.386,121.485 146.662,121.367 146.853 C 121.249 147.044,120.433 147.200,119.553 147.200 C 118.588 147.200,118.051 147.359,118.200 147.600 C 118.336 147.820,119.056 148.000,119.800 148.000 C 120.544 148.000,121.264 147.820,121.400 147.600 C 121.536 147.380,122.104 147.200,122.663 147.200 C 124.063 147.200,127.982 145.474,131.483 143.316 C 134.578 141.408,140.400 135.385,140.400 134.091 C 140.400 133.875,140.670 133.474,141.000 133.200 C 141.330 132.926,141.600 132.364,141.600 131.951 C 141.600 131.538,141.766 131.200,141.968 131.200 C 142.171 131.200,142.464 130.621,142.619 129.913 C 142.775 129.205,143.035 128.350,143.197 128.013 C 144.547 125.213,144.575 124.710,144.704 101.400 C 144.844 75.906,144.753 68.693,144.301 69.600 M217.776 84.400 C 217.776 90.670,217.832 93.235,217.899 90.100 C 217.967 86.965,217.967 81.835,217.899 78.700 C 217.832 75.565,217.776 78.130,217.776 84.400 M217.200 104.400 C 217.200 109.093,217.304 112.829,217.431 112.702 C 217.703 112.431,217.658 96.324,217.385 96.051 C 217.283 95.950,217.200 99.707,217.200 104.400 M174.688 123.900 C 174.517 127.921,173.659 133.647,173.173 134.000 C 173.022 134.110,172.770 134.964,172.614 135.898 C 172.458 136.832,172.166 137.697,171.965 137.822 C 171.764 137.946,171.600 138.382,171.600 138.791 C 171.600 139.200,171.341 140.045,171.025 140.668 C 168.936 144.782,167.256 148.589,167.446 148.778 C 167.798 149.129,169.200 147.193,169.200 146.356 C 169.200 145.940,169.380 145.600,169.600 145.600 C 169.820 145.600,170.000 145.404,170.000 145.165 C 170.000 144.925,170.540 143.563,171.200 142.137 C 171.860 140.711,172.400 139.197,172.400 138.772 C 172.400 138.347,172.569 138.000,172.775 138.000 C 172.982 138.000,173.273 137.188,173.422 136.195 C 173.571 135.202,173.852 134.292,174.046 134.171 C 174.241 134.051,174.400 133.344,174.400 132.600 C 174.400 131.856,174.592 131.128,174.827 130.983 C 175.062 130.838,175.202 130.117,175.139 129.381 C 175.076 128.645,175.153 127.913,175.312 127.755 C 175.741 127.325,175.661 120.000,175.227 120.000 C 175.021 120.000,174.779 121.755,174.688 123.900 M217.759 161.800 C 217.789 173.148,217.931 177.618,218.280 178.200 C 218.543 178.640,218.869 179.851,219.003 180.891 C 219.137 181.931,219.416 182.886,219.623 183.014 C 219.830 183.142,220.000 183.576,220.000 183.978 C 220.000 184.380,220.269 185.224,220.598 185.854 C 220.926 186.484,221.196 187.405,221.198 187.900 C 221.199 188.395,221.366 188.800,221.568 188.800 C 221.771 188.800,222.055 189.340,222.200 190.000 C 222.345 190.660,222.629 191.200,222.832 191.200 C 223.034 191.200,223.200 191.470,223.200 191.800 C 223.200 192.130,223.391 192.400,223.624 192.400 C 223.857 192.400,223.940 192.573,223.810 192.784 C 223.591 193.138,224.277 194.737,224.846 195.200 C 224.981 195.310,225.228 195.836,225.395 196.369 C 225.714 197.390,226.035 197.861,227.500 199.456 C 227.995 199.995,228.400 200.581,228.400 200.757 C 228.400 201.439,232.196 205.688,238.252 211.787 C 243.104 216.673,244.800 217.971,244.800 216.800 C 244.800 216.580,244.636 216.400,244.436 216.400 C 243.967 216.400,234.068 206.551,231.207 203.237 C 228.936 200.606,226.023 196.033,223.938 191.826 C 223.277 190.492,222.593 189.124,222.419 188.787 C 222.244 188.450,221.975 187.597,221.820 186.891 C 221.665 186.186,221.372 185.506,221.169 185.381 C 220.966 185.255,220.800 184.713,220.800 184.176 C 220.800 183.639,220.620 183.200,220.400 183.200 C 220.180 183.200,220.034 183.065,220.075 182.900 C 220.203 182.388,219.526 179.022,219.210 178.600 C 218.612 177.803,218.292 172.747,218.008 159.600 L 217.717 146.200 217.759 161.800 M292.200 146.815 C 291.540 146.975,298.796 147.127,308.324 147.153 C 319.686 147.184,325.563 147.064,325.402 146.803 C 325.117 146.343,294.106 146.354,292.200 146.815 M203.700 147.487 C 205.185 147.569,206.422 147.673,206.449 147.718 C 206.476 147.763,206.629 149.690,206.789 152.000 L 207.080 156.200 207.040 151.800 L 207.000 147.400 204.000 147.369 L 201.000 147.337 203.700 147.487 M258.552 147.523 C 258.744 147.832,261.600 147.677,261.600 147.356 C 261.600 147.270,260.869 147.200,259.976 147.200 C 259.083 147.200,258.442 147.345,258.552 147.523 M329.900 147.482 C 330.395 147.578,331.205 147.578,331.700 147.482 C 332.195 147.387,331.790 147.309,330.800 147.309 C 329.810 147.309,329.405 147.387,329.900 147.482 M65.800 148.000 C 65.664 148.220,64.513 148.400,63.243 148.400 C 61.973 148.400,60.803 148.530,60.644 148.690 C 60.484 148.849,59.689 149.013,58.877 149.054 C 56.832 149.158,54.800 149.630,54.800 150.000 C 54.800 150.170,53.994 150.430,53.009 150.578 C 52.024 150.725,51.126 150.995,51.014 151.178 C 50.901 151.360,50.177 151.628,49.404 151.773 C 48.632 151.918,48.000 152.166,48.000 152.324 C 48.000 152.623,45.068 154.000,44.431 154.000 C 44.230 154.000,44.007 154.135,43.933 154.300 C 43.860 154.465,43.127 154.942,42.304 155.361 C 41.481 155.779,40.233 156.634,39.532 157.261 C 38.830 157.887,38.108 158.400,37.928 158.400 C 37.510 158.400,29.600 166.142,29.600 166.551 C 29.600 166.719,29.375 167.108,29.100 167.415 C 27.913 168.738,27.600 169.191,27.600 169.583 C 27.600 169.812,27.416 170.000,27.190 170.000 C 26.965 170.000,26.605 170.405,26.391 170.900 C 25.924 171.980,25.178 173.172,24.513 173.898 C 23.810 174.667,22.000 178.365,22.000 179.033 C 22.000 179.345,21.828 179.600,21.618 179.600 C 21.408 179.600,21.118 180.232,20.973 181.004 C 20.828 181.777,20.550 182.507,20.355 182.628 C 20.160 182.749,20.000 183.197,20.000 183.624 C 20.000 184.051,19.840 184.400,19.645 184.400 C 19.450 184.400,19.163 185.255,19.006 186.300 C 18.850 187.345,18.560 188.300,18.362 188.423 C 18.164 188.546,17.885 190.301,17.741 192.323 C 17.598 194.345,17.327 196.000,17.140 196.000 C 16.953 196.000,16.800 197.890,16.800 200.200 C 16.800 205.605,17.491 205.679,17.734 200.300 C 17.954 195.447,18.641 190.245,19.201 189.199 C 19.420 188.788,19.600 188.001,19.600 187.450 C 19.600 186.898,19.764 186.346,19.965 186.222 C 20.166 186.097,20.452 185.277,20.600 184.398 C 20.749 183.519,21.034 182.800,21.235 182.800 C 21.436 182.800,21.600 182.533,21.600 182.208 C 21.600 181.481,24.009 176.402,24.700 175.671 C 24.975 175.381,25.200 174.968,25.200 174.754 C 25.200 174.541,25.891 173.429,26.736 172.283 C 27.580 171.137,28.345 170.000,28.436 169.756 C 29.432 167.061,39.464 157.937,44.285 155.340 C 44.771 155.078,45.671 154.589,46.285 154.253 C 47.724 153.466,49.697 152.646,52.200 151.795 C 53.300 151.421,54.560 150.970,55.000 150.793 C 59.112 149.136,65.053 148.777,92.100 148.551 C 107.102 148.426,117.200 148.193,117.200 147.971 C 117.200 147.446,66.125 147.475,65.800 148.000 M194.800 148.000 C 194.800 148.220,195.419 148.400,196.176 148.400 C 196.933 148.400,197.664 148.220,197.800 148.000 C 197.949 147.758,197.404 147.600,196.424 147.600 C 195.531 147.600,194.800 147.780,194.800 148.000 M334.000 148.000 C 334.000 148.220,334.585 148.397,335.300 148.394 C 336.286 148.389,336.455 148.294,336.000 148.000 C 335.214 147.492,334.000 147.492,334.000 148.000 M192.400 148.800 C 192.400 149.020,192.659 149.200,192.976 149.200 C 193.293 149.200,193.664 149.020,193.800 148.800 C 193.936 148.580,193.677 148.400,193.224 148.400 C 192.771 148.400,192.400 148.580,192.400 148.800 M337.081 148.841 C 337.398 149.158,337.732 149.161,338.261 148.854 C 338.909 148.477,338.854 148.423,337.820 148.412 C 336.959 148.403,336.760 148.520,337.081 148.841 M166.480 149.680 C 166.216 149.944,166.000 150.394,166.000 150.680 C 166.000 150.966,165.865 151.205,165.700 151.211 C 165.535 151.217,164.959 151.937,164.420 152.811 C 163.880 153.685,163.295 154.400,163.120 154.400 C 162.944 154.400,162.800 154.582,162.800 154.803 C 162.800 155.663,154.925 163.951,152.585 165.554 C 151.823 166.076,151.200 166.660,151.200 166.852 C 151.200 167.537,152.012 167.180,153.140 166.000 C 153.771 165.340,154.429 164.800,154.602 164.800 C 154.965 164.800,161.600 158.164,161.600 157.801 C 161.600 157.669,162.225 156.917,162.989 156.130 C 163.753 155.344,164.485 154.363,164.616 153.950 C 164.747 153.538,165.001 153.200,165.180 153.200 C 165.360 153.200,165.615 152.885,165.748 152.500 C 165.880 152.115,166.348 151.215,166.786 150.500 C 167.576 149.212,167.405 148.755,166.480 149.680 M187.200 150.000 C 187.200 150.220,187.470 150.400,187.800 150.400 C 188.130 150.400,188.400 150.220,188.400 150.000 C 188.400 149.780,188.130 149.600,187.800 149.600 C 187.470 149.600,187.200 149.780,187.200 150.000 M341.400 150.000 C 341.264 150.220,341.523 150.400,341.976 150.400 C 342.429 150.400,342.800 150.220,342.800 150.000 C 342.800 149.780,342.541 149.600,342.224 149.600 C 341.907 149.600,341.536 149.780,341.400 150.000 M183.200 151.200 C 183.200 151.420,183.470 151.600,183.800 151.600 C 184.130 151.600,184.400 151.420,184.400 151.200 C 184.400 150.980,184.130 150.800,183.800 150.800 C 183.470 150.800,183.200 150.980,183.200 151.200 M347.600 152.435 C 347.600 152.636,347.855 152.800,348.167 152.800 C 348.478 152.800,348.814 153.025,348.912 153.300 C 349.010 153.575,349.238 153.662,349.419 153.493 C 349.599 153.325,349.535 152.975,349.277 152.717 C 348.691 152.131,347.600 151.947,347.600 152.435 M258.674 156.500 C 258.375 159.669,258.545 167.879,258.918 168.252 C 259.073 168.407,259.200 165.263,259.200 161.267 C 259.200 153.611,259.064 152.377,258.674 156.500 M351.200 154.357 C 351.200 154.554,351.485 154.824,351.833 154.957 C 352.811 155.333,352.941 155.251,352.400 154.600 C 351.848 153.935,351.200 153.804,351.200 154.357 M173.613 155.891 C 173.089 156.482,173.103 156.523,173.746 156.276 C 174.142 156.124,174.541 156.000,174.633 156.000 C 174.725 156.000,174.800 155.820,174.800 155.600 C 174.800 155.012,174.281 155.139,173.613 155.891 M353.200 155.425 C 353.200 155.891,354.355 156.797,354.549 156.483 C 354.658 156.305,354.400 155.943,353.974 155.677 C 353.548 155.411,353.200 155.298,353.200 155.425 M171.660 157.042 C 170.931 157.866,171.400 158.257,172.181 157.476 C 172.521 157.136,172.800 156.754,172.800 156.629 C 172.800 156.209,172.206 156.424,171.660 157.042 M356.000 157.449 C 356.000 157.654,356.360 158.130,356.800 158.507 C 357.240 158.884,357.600 159.042,357.600 158.858 C 357.600 158.674,357.240 158.198,356.800 157.800 C 356.360 157.402,356.000 157.244,356.000 157.449 M167.493 160.000 C 167.116 160.440,166.958 160.800,167.142 160.800 C 167.326 160.800,167.802 160.440,168.200 160.000 C 168.598 159.560,168.756 159.200,168.551 159.200 C 168.346 159.200,167.870 159.560,167.493 160.000 M161.456 165.460 C 159.768 167.143,158.466 168.599,158.563 168.696 C 158.747 168.880,164.800 162.970,164.800 162.606 C 164.800 162.178,164.446 162.480,161.456 165.460 M361.600 162.956 C 361.600 163.124,362.140 163.802,362.800 164.462 C 363.460 165.122,364.000 165.501,364.000 165.306 C 364.000 165.110,363.460 164.432,362.800 163.800 C 362.140 163.168,361.600 162.788,361.600 162.956 M207.200 172.600 C 207.200 176.663,207.340 178.761,207.600 178.600 C 207.837 178.454,208.000 176.004,208.000 172.600 C 208.000 169.196,207.837 166.746,207.600 166.600 C 207.340 166.439,207.200 168.537,207.200 172.600 M365.322 167.514 C 365.695 167.926,366.000 168.397,366.000 168.560 C 366.000 168.899,367.035 170.000,367.353 170.000 C 367.757 170.000,365.795 167.242,365.222 167.005 C 364.800 166.830,364.826 166.966,365.322 167.514 M147.671 168.988 C 146.279 169.929,144.119 171.211,142.871 171.837 C 141.622 172.463,140.540 173.115,140.467 173.287 C 140.393 173.459,140.033 173.601,139.667 173.602 C 139.300 173.604,138.484 173.874,137.854 174.202 C 137.224 174.531,136.531 174.800,136.315 174.800 C 136.098 174.800,135.354 175.043,134.660 175.341 C 132.910 176.091,129.724 176.900,127.700 177.107 C 126.765 177.202,126.000 177.430,126.000 177.612 C 126.000 178.031,128.122 177.977,95.800 178.378 C 80.620 178.566,67.840 178.754,67.400 178.796 C 66.107 178.920,62.651 179.699,62.000 180.014 C 61.670 180.174,60.547 180.698,59.503 181.179 C 53.206 184.081,48.000 192.689,48.000 200.200 C 48.000 208.013,53.845 217.105,60.450 219.564 C 61.192 219.841,62.109 220.229,62.486 220.428 C 64.468 221.472,71.562 221.672,101.800 221.538 L 133.000 221.400 132.865 236.200 L 132.730 251.000 103.765 251.103 C 85.639 251.167,74.800 251.349,74.800 251.588 C 74.800 251.829,85.813 251.979,104.405 251.992 L 134.009 252.013 133.905 236.306 L 133.800 220.600 98.485 220.400 C 75.592 220.270,63.070 220.059,62.885 219.799 C 62.728 219.579,62.105 219.174,61.500 218.899 C 58.743 217.648,58.253 217.359,57.452 216.514 C 56.984 216.019,56.399 215.611,56.154 215.607 C 55.909 215.603,55.240 214.924,54.668 214.098 C 54.096 213.272,53.277 212.344,52.850 212.036 C 52.422 211.728,52.166 211.234,52.279 210.938 C 52.393 210.642,52.286 210.400,52.043 210.400 C 51.799 210.400,51.600 210.130,51.600 209.800 C 51.600 209.470,51.434 209.200,51.232 209.200 C 51.029 209.200,50.738 208.615,50.586 207.900 C 50.433 207.185,50.103 206.347,49.854 206.039 C 49.567 205.683,49.400 203.539,49.400 200.200 C 49.400 196.861,49.567 194.717,49.854 194.361 C 50.103 194.053,50.433 193.215,50.586 192.500 C 50.738 191.785,50.985 191.200,51.134 191.200 C 51.283 191.200,51.646 190.656,51.940 189.991 C 52.234 189.326,52.683 188.561,52.938 188.291 C 53.193 188.021,53.835 187.154,54.364 186.364 C 54.894 185.574,55.974 184.496,56.764 183.967 C 57.554 183.439,58.290 182.916,58.400 182.804 C 61.275 179.877,64.989 179.532,96.600 179.250 C 117.884 179.060,124.810 178.880,125.474 178.500 C 125.954 178.225,126.989 178.000,127.774 178.000 C 128.558 178.000,129.200 177.845,129.200 177.656 C 129.200 177.466,130.119 177.203,131.242 177.070 C 132.366 176.937,133.500 176.649,133.762 176.431 C 134.025 176.213,134.996 175.914,135.920 175.766 C 136.844 175.619,137.600 175.341,137.600 175.149 C 137.600 174.957,137.870 174.800,138.200 174.800 C 138.530 174.800,138.800 174.609,138.800 174.376 C 138.800 174.143,138.954 174.048,139.141 174.164 C 139.544 174.413,142.000 173.547,142.000 173.156 C 142.000 173.008,142.450 172.774,143.000 172.636 C 143.550 172.498,144.000 172.222,144.000 172.024 C 144.000 171.826,144.540 171.545,145.200 171.400 C 145.860 171.255,146.400 170.971,146.400 170.768 C 146.400 170.566,146.657 170.400,146.971 170.400 C 147.286 170.400,147.781 170.163,148.071 169.873 C 148.362 169.584,149.095 169.023,149.700 168.627 C 150.722 167.959,151.189 167.150,150.500 167.239 C 150.335 167.260,149.062 168.048,147.671 168.988 M259.200 169.976 C 259.200 170.403,259.380 170.864,259.600 171.000 C 259.827 171.140,260.000 170.804,260.000 170.224 C 260.000 169.661,259.820 169.200,259.600 169.200 C 259.380 169.200,259.200 169.549,259.200 169.976 M156.637 171.000 C 156.276 171.550,156.166 172.000,156.391 172.000 C 156.616 172.000,156.800 171.833,156.800 171.629 C 156.800 171.424,157.083 170.974,157.429 170.629 C 157.774 170.283,157.885 170.000,157.675 170.000 C 157.464 170.000,156.997 170.450,156.637 171.000 M367.423 170.762 C 367.275 171.003,367.340 171.200,367.569 171.200 C 367.798 171.200,368.098 171.650,368.236 172.200 C 368.462 173.100,369.204 173.640,369.197 172.900 C 369.191 172.179,367.676 170.353,367.423 170.762 M261.292 175.275 C 261.379 175.536,261.664 175.821,261.925 175.908 C 262.218 176.006,262.307 175.823,262.157 175.433 C 261.878 174.706,261.052 174.555,261.292 175.275 M370.213 175.600 C 370.555 176.795,370.721 177.013,371.041 176.693 C 371.173 176.560,370.977 176.035,370.604 175.526 L 369.926 174.600 370.213 175.600 M262.667 176.667 C 262.541 176.792,262.708 177.165,263.038 177.495 C 263.368 177.825,263.741 177.992,263.867 177.867 C 263.992 177.741,263.825 177.368,263.495 177.038 C 263.165 176.708,262.792 176.541,262.667 176.667 M264.400 178.405 C 264.400 178.677,274.806 178.789,295.800 178.743 C 313.070 178.706,327.200 178.524,327.200 178.338 C 327.200 178.152,313.070 178.000,295.800 178.000 C 274.851 178.000,264.400 178.135,264.400 178.405 M202.100 179.091 C 202.925 179.178,204.275 179.178,205.100 179.091 C 205.925 179.005,205.250 178.934,203.600 178.934 C 201.950 178.934,201.275 179.005,202.100 179.091 M197.600 179.600 C 197.600 179.820,198.050 180.000,198.600 180.000 C 199.150 180.000,199.600 179.820,199.600 179.600 C 199.600 179.380,199.150 179.200,198.600 179.200 C 198.050 179.200,197.600 179.380,197.600 179.600 M330.800 179.600 C 330.800 179.820,331.070 180.000,331.400 180.000 C 331.730 180.000,332.000 179.820,332.000 179.600 C 332.000 179.380,331.730 179.200,331.400 179.200 C 331.070 179.200,330.800 179.380,330.800 179.600 M335.600 181.853 C 335.600 182.261,337.308 183.625,337.535 183.398 C 337.649 183.285,337.357 182.833,336.888 182.396 C 336.012 181.580,335.600 181.406,335.600 181.853 M338.011 183.800 C 338.015 184.020,338.644 184.895,339.409 185.744 C 340.174 186.593,340.800 187.448,340.800 187.644 C 340.800 187.840,340.984 188.000,341.209 188.000 C 341.434 188.000,341.302 187.505,340.914 186.900 C 339.946 185.387,338.002 183.311,338.011 183.800 M373.600 184.376 C 373.600 184.829,373.780 185.200,374.000 185.200 C 374.220 185.200,374.400 184.941,374.400 184.624 C 374.400 184.307,374.220 183.936,374.000 183.800 C 373.780 183.664,373.600 183.923,373.600 184.376 M148.442 185.122 C 148.171 185.628,148.030 186.347,148.128 186.721 C 148.261 187.226,148.319 187.177,148.354 186.533 C 148.379 186.057,148.607 185.598,148.860 185.513 C 149.113 185.429,149.233 185.099,149.127 184.781 C 148.984 184.352,148.807 184.440,148.442 185.122 M185.400 186.223 C 183.682 188.208,183.663 188.261,185.051 187.177 C 186.351 186.162,187.431 184.786,186.903 184.818 C 186.737 184.828,186.060 185.461,185.400 186.223 M147.200 188.400 C 147.200 188.840,147.380 189.200,147.600 189.200 C 147.820 189.200,148.000 188.840,148.000 188.400 C 148.000 187.960,147.820 187.600,147.600 187.600 C 147.380 187.600,147.200 187.960,147.200 188.400 M182.700 188.785 C 181.682 189.777,181.840 190.180,182.871 189.220 C 183.350 188.774,183.665 188.340,183.571 188.256 C 183.477 188.172,183.085 188.410,182.700 188.785 M374.800 189.176 C 374.800 189.849,374.980 190.400,375.200 190.400 C 375.420 190.400,375.600 189.961,375.600 189.424 C 375.600 188.887,375.420 188.336,375.200 188.200 C 374.967 188.056,374.800 188.463,374.800 189.176 M342.800 191.576 C 342.800 191.783,342.980 192.064,343.200 192.200 C 343.420 192.336,343.600 192.827,343.600 193.290 C 343.600 193.754,343.707 194.026,343.838 193.895 C 344.185 193.548,343.602 191.200,343.168 191.200 C 342.966 191.200,342.800 191.369,342.800 191.576 M375.600 193.176 C 375.600 194.069,375.780 194.800,376.000 194.800 C 376.220 194.800,376.400 194.181,376.400 193.424 C 376.400 192.667,376.220 191.936,376.000 191.800 C 375.758 191.651,375.600 192.196,375.600 193.176 M145.467 194.267 C 145.048 194.685,145.155 196.400,145.600 196.400 C 145.820 196.400,146.000 195.860,146.000 195.200 C 146.000 193.957,145.919 193.815,145.467 194.267 M344.000 199.000 C 344.000 201.267,344.161 202.800,344.400 202.800 C 344.639 202.800,344.800 201.267,344.800 199.000 C 344.800 196.733,344.639 195.200,344.400 195.200 C 344.161 195.200,344.000 196.733,344.000 199.000 M144.893 198.400 C 144.893 199.170,144.975 199.485,145.076 199.100 C 145.176 198.715,145.176 198.085,145.076 197.700 C 144.975 197.315,144.893 197.630,144.893 198.400 M176.800 199.400 C 176.800 199.730,176.980 200.000,177.200 200.000 C 177.420 200.000,177.600 199.730,177.600 199.400 C 177.600 199.070,177.420 198.800,177.200 198.800 C 176.980 198.800,176.800 199.070,176.800 199.400 M144.006 266.300 C 144.010 306.864,144.154 330.419,144.400 330.800 C 144.651 331.189,144.790 308.690,144.794 266.900 C 144.798 224.163,144.665 202.400,144.400 202.400 C 144.135 202.400,144.002 223.963,144.006 266.300 M375.600 205.043 C 375.600 206.674,375.928 206.691,376.221 205.075 C 376.323 204.512,376.225 203.939,376.003 203.802 C 375.760 203.652,375.600 204.144,375.600 205.043 M175.600 266.667 C 175.600 301.133,175.735 329.198,175.900 329.033 C 176.065 328.868,176.200 300.668,176.200 266.367 C 176.200 232.065,176.065 204.000,175.900 204.000 C 175.735 204.000,175.600 232.200,175.600 266.667 M17.600 207.000 C 17.600 208.063,17.730 208.804,17.888 208.645 C 18.175 208.358,18.072 205.550,17.763 205.233 C 17.673 205.142,17.600 205.937,17.600 207.000 M374.800 209.224 C 374.800 209.937,374.967 210.344,375.200 210.200 C 375.420 210.064,375.600 209.513,375.600 208.976 C 375.600 208.439,375.420 208.000,375.200 208.000 C 374.980 208.000,374.800 208.551,374.800 209.224 M18.000 210.576 C 18.000 211.113,18.180 211.664,18.400 211.800 C 18.633 211.944,18.800 211.537,18.800 210.824 C 18.800 210.151,18.620 209.600,18.400 209.600 C 18.180 209.600,18.000 210.039,18.000 210.576 M340.643 210.233 C 340.267 211.211,340.349 211.308,341.000 210.657 C 341.680 209.977,341.767 209.600,341.243 209.600 C 341.046 209.600,340.776 209.885,340.643 210.233 M265.200 210.400 C 264.870 210.613,264.105 210.791,263.500 210.794 C 262.895 210.797,262.400 211.000,262.400 211.244 C 262.400 211.537,262.910 211.598,263.900 211.425 C 264.725 211.281,266.164 211.063,267.099 210.941 C 268.033 210.819,268.697 210.558,268.575 210.360 C 268.280 209.882,265.958 209.910,265.200 210.400 M260.000 211.600 C 259.670 211.813,258.995 211.991,258.500 211.994 C 258.005 211.997,257.600 212.180,257.600 212.400 C 257.600 212.620,257.150 212.800,256.600 212.800 C 256.050 212.800,255.600 212.980,255.600 213.200 C 255.600 213.420,255.949 213.600,256.376 213.600 C 256.803 213.600,257.264 213.420,257.400 213.200 C 257.536 212.980,258.076 212.800,258.600 212.800 C 259.124 212.800,259.664 212.620,259.800 212.400 C 259.936 212.180,260.532 211.997,261.124 211.994 C 261.966 211.989,262.069 211.903,261.600 211.600 C 261.270 211.387,260.910 211.212,260.800 211.212 C 260.690 211.212,260.330 211.387,260.000 211.600 M18.800 213.224 C 18.800 213.677,18.980 213.936,19.200 213.800 C 19.420 213.664,19.600 213.293,19.600 212.976 C 19.600 212.659,19.420 212.400,19.200 212.400 C 18.980 212.400,18.800 212.771,18.800 213.224 M338.218 213.418 C 337.658 213.978,337.200 214.527,337.200 214.637 C 337.200 214.988,339.157 213.421,339.370 212.900 C 339.680 212.142,339.342 212.294,338.218 213.418 M373.595 213.500 C 373.592 213.885,373.492 214.650,373.373 215.200 C 373.215 215.927,373.326 215.833,373.778 214.854 C 374.502 213.288,374.554 212.800,374.000 212.800 C 373.780 212.800,373.598 213.115,373.595 213.500 M253.600 213.565 C 253.600 213.766,252.880 214.051,252.000 214.200 C 251.120 214.349,250.400 214.591,250.400 214.738 C 250.400 215.057,248.635 215.850,247.100 216.221 C 245.915 216.507,245.589 217.200,246.640 217.200 C 247.318 217.200,250.063 216.019,250.400 215.582 C 250.510 215.440,251.140 215.195,251.800 215.039 C 254.552 214.388,256.232 213.200,254.400 213.200 C 253.960 213.200,253.600 213.364,253.600 213.565 M19.200 214.976 C 19.200 215.293,19.380 215.664,19.600 215.800 C 19.820 215.936,20.000 215.677,20.000 215.224 C 20.000 214.771,19.820 214.400,19.600 214.400 C 19.380 214.400,19.200 214.659,19.200 214.976 M335.029 215.829 C 334.605 216.138,334.372 216.505,334.510 216.643 C 334.649 216.782,335.062 216.595,335.429 216.229 C 336.291 215.366,336.025 215.100,335.029 215.829 M20.000 217.200 C 20.000 217.640,20.180 218.000,20.400 218.000 C 20.620 218.000,20.806 218.315,20.814 218.700 C 20.821 219.085,21.175 220.120,21.600 221.000 C 22.025 221.880,22.379 222.825,22.386 223.100 C 22.406 223.817,23.200 223.720,23.200 223.000 C 23.200 222.670,23.028 222.400,22.818 222.400 C 22.608 222.400,22.318 221.770,22.174 221.000 C 22.029 220.230,21.767 219.600,21.591 219.600 C 21.414 219.600,21.149 218.880,21.000 218.000 C 20.722 216.353,20.000 215.776,20.000 217.200 M372.400 217.096 C 372.400 217.567,372.220 218.064,372.000 218.200 C 371.533 218.488,371.462 219.201,371.900 219.197 C 372.473 219.191,373.222 217.062,372.800 216.640 C 372.533 216.373,372.400 216.525,372.400 217.096 M328.200 218.800 C 328.064 219.020,328.323 219.200,328.776 219.200 C 329.229 219.200,329.600 219.020,329.600 218.800 C 329.600 218.580,329.341 218.400,329.024 218.400 C 328.707 218.400,328.336 218.580,328.200 218.800 M324.400 219.600 C 324.400 219.820,325.030 220.000,325.800 220.000 C 326.570 220.000,327.200 219.820,327.200 219.600 C 327.200 219.380,326.570 219.200,325.800 219.200 C 325.030 219.200,324.400 219.380,324.400 219.600 M271.900 220.289 C 272.615 220.378,273.785 220.378,274.500 220.289 C 275.215 220.201,274.630 220.128,273.200 220.128 C 271.770 220.128,271.185 220.201,271.900 220.289 M266.800 220.800 C 266.800 221.020,267.340 221.200,268.000 221.200 C 268.660 221.200,269.200 221.020,269.200 220.800 C 269.200 220.580,268.660 220.400,268.000 220.400 C 267.340 220.400,266.800 220.580,266.800 220.800 M261.200 222.000 C 261.200 222.220,261.549 222.400,261.976 222.400 C 262.403 222.400,262.864 222.220,263.000 222.000 C 263.140 221.773,262.804 221.600,262.224 221.600 C 261.661 221.600,261.200 221.780,261.200 222.000 M257.400 223.200 C 257.264 223.420,257.534 223.600,258.000 223.600 C 258.466 223.600,258.736 223.420,258.600 223.200 C 258.464 222.980,258.194 222.800,258.000 222.800 C 257.806 222.800,257.536 222.980,257.400 223.200 M255.600 224.000 C 255.600 224.220,255.870 224.400,256.200 224.400 C 256.530 224.400,256.800 224.220,256.800 224.000 C 256.800 223.780,256.530 223.600,256.200 223.600 C 255.870 223.600,255.600 223.780,255.600 224.000 M23.200 224.400 C 23.200 224.620,23.374 224.800,23.587 224.800 C 23.801 224.800,23.871 225.070,23.745 225.400 C 23.618 225.730,23.714 226.000,23.957 226.000 C 24.201 226.000,24.400 226.193,24.400 226.429 C 24.400 226.664,24.694 227.151,25.053 227.510 C 25.656 228.114,25.682 228.089,25.399 227.181 C 25.230 226.642,24.961 226.110,24.800 226.000 C 24.639 225.890,24.381 225.395,24.227 224.900 C 23.947 224.003,23.200 223.639,23.200 224.400 M185.843 225.433 C 185.709 225.781,185.600 234.196,185.600 244.133 L 185.601 262.200 186.593 263.400 C 188.317 265.486,190.581 267.594,191.100 267.597 C 191.375 267.599,191.600 267.874,191.600 268.209 C 191.600 268.543,192.050 269.022,192.600 269.273 C 193.150 269.523,193.600 269.875,193.600 270.054 C 193.600 270.320,195.047 271.821,197.652 274.257 C 197.853 274.446,198.826 275.455,199.815 276.500 C 200.803 277.545,201.789 278.400,202.006 278.400 C 202.223 278.400,202.400 278.586,202.400 278.813 C 202.400 279.041,202.985 279.767,203.700 280.426 C 205.279 281.883,205.274 281.879,207.427 284.052 C 208.380 285.013,210.113 286.726,211.279 287.859 C 212.446 288.991,213.866 290.431,214.435 291.059 C 215.005 291.686,215.995 292.666,216.635 293.235 C 217.276 293.805,218.287 294.795,218.882 295.435 C 219.477 296.076,220.467 297.092,221.082 297.693 C 221.697 298.294,222.380 298.971,222.600 299.197 C 224.701 301.357,228.389 304.400,228.906 304.400 C 229.089 304.400,229.655 304.850,230.165 305.400 C 230.675 305.950,231.296 306.400,231.546 306.400 C 231.796 306.400,232.000 306.577,232.000 306.792 C 232.000 307.008,232.450 307.298,233.000 307.436 C 233.550 307.574,234.000 307.833,234.000 308.012 C 234.000 308.190,234.540 308.455,235.200 308.600 C 235.860 308.745,236.400 308.985,236.400 309.134 C 236.400 309.283,236.985 309.651,237.700 309.952 C 238.415 310.253,239.513 310.742,240.140 311.039 C 240.767 311.336,241.892 311.694,242.640 311.834 C 243.388 311.974,244.000 312.240,244.000 312.425 C 244.000 312.609,245.084 312.883,246.409 313.033 C 247.734 313.183,248.914 313.462,249.033 313.653 C 249.151 313.844,249.946 314.000,250.800 314.000 C 251.654 314.000,252.444 314.147,252.555 314.327 C 252.789 314.707,266.090 314.580,268.909 314.171 C 271.909 313.736,271.784 313.030,268.761 313.341 C 262.116 314.023,258.907 314.081,254.126 313.604 C 251.307 313.323,248.820 312.957,248.600 312.792 C 248.380 312.626,247.397 312.358,246.415 312.196 C 245.434 312.034,244.354 311.765,244.015 311.599 C 242.260 310.739,240.307 310.000,239.786 310.000 C 239.464 310.000,239.200 309.840,239.200 309.643 C 239.200 309.447,238.752 309.174,238.205 309.037 C 236.973 308.728,230.267 304.624,227.964 302.770 C 226.360 301.479,217.610 292.934,196.100 271.654 L 186.800 262.453 186.779 251.326 C 186.767 245.207,186.667 237.326,186.557 233.814 C 186.447 230.302,186.457 227.026,186.581 226.535 L 186.805 225.641 188.902 226.661 C 190.056 227.222,191.270 227.833,191.600 228.020 C 191.930 228.206,192.920 228.745,193.800 229.217 C 195.424 230.088,198.979 232.649,200.800 234.259 C 201.350 234.745,202.250 235.526,202.800 235.993 C 204.293 237.262,221.570 254.116,232.132 264.606 C 245.894 278.275,248.390 280.546,251.049 281.820 C 254.430 283.439,261.201 284.503,262.674 283.646 C 263.227 283.325,262.618 283.221,260.124 283.212 C 258.322 283.205,256.736 283.020,256.600 282.800 C 256.464 282.580,255.834 282.400,255.200 282.400 C 254.566 282.400,253.950 282.243,253.832 282.052 C 253.714 281.860,253.043 281.589,252.342 281.448 C 251.641 281.308,250.479 280.745,249.760 280.197 C 249.041 279.649,248.354 279.200,248.234 279.200 C 248.113 279.200,240.783 272.000,231.945 263.200 C 223.108 254.400,215.647 247.200,215.365 247.200 C 215.084 247.200,214.740 246.840,214.600 246.400 C 214.460 245.960,214.205 245.600,214.032 245.600 C 213.859 245.600,211.189 243.080,208.098 240.000 C 205.008 236.920,202.347 234.400,202.186 234.400 C 202.024 234.400,201.511 233.991,201.046 233.492 C 200.581 232.992,199.525 232.167,198.700 231.659 C 197.875 231.151,197.200 230.590,197.200 230.414 C 197.200 230.238,196.885 229.988,196.500 229.858 C 195.709 229.593,194.303 228.736,193.996 228.332 C 193.884 228.184,193.299 227.940,192.696 227.788 C 192.093 227.637,191.600 227.353,191.600 227.157 C 191.600 226.960,191.240 226.800,190.800 226.800 C 190.360 226.800,190.000 226.634,190.000 226.432 C 190.000 226.229,189.460 225.945,188.800 225.800 C 188.140 225.655,187.600 225.371,187.600 225.168 C 187.600 224.539,186.099 224.765,185.843 225.433 M250.300 226.303 C 249.191 226.991,248.862 227.600,249.600 227.600 C 249.820 227.600,250.000 227.420,250.000 227.200 C 250.000 226.980,250.270 226.800,250.600 226.800 C 250.930 226.800,251.200 226.633,251.200 226.429 C 251.200 226.225,251.515 225.976,251.900 225.876 C 252.392 225.747,252.422 225.682,252.000 225.657 C 251.670 225.637,250.905 225.928,250.300 226.303 M367.043 227.033 C 366.667 228.011,366.749 228.141,367.400 227.600 C 368.065 227.048,368.196 226.400,367.643 226.400 C 367.446 226.400,367.176 226.685,367.043 227.033 M246.243 228.618 C 245.827 228.922,245.287 229.243,245.043 229.331 C 244.799 229.419,244.726 229.627,244.881 229.793 C 245.035 229.959,245.437 229.820,245.774 229.483 C 246.110 229.147,246.614 228.790,246.893 228.690 C 247.172 228.591,247.310 228.410,247.199 228.287 C 247.089 228.165,246.658 228.314,246.243 228.618 M25.600 228.800 C 25.600 229.020,25.780 229.200,26.000 229.200 C 26.220 229.200,26.400 229.457,26.400 229.771 C 26.400 230.444,27.469 231.600,28.091 231.600 C 28.329 231.600,28.226 231.271,27.862 230.869 C 27.498 230.466,27.200 230.003,27.200 229.840 C 27.200 229.491,26.161 228.400,25.829 228.400 C 25.703 228.400,25.600 228.580,25.600 228.800 M365.843 229.033 C 365.467 230.011,365.549 230.108,366.200 229.457 C 366.880 228.777,366.967 228.400,366.443 228.400 C 366.246 228.400,365.976 228.685,365.843 229.033 M242.629 231.029 C 242.205 231.338,241.972 231.705,242.110 231.843 C 242.249 231.982,242.662 231.795,243.029 231.429 C 243.891 230.566,243.625 230.300,242.629 231.029 M363.863 231.600 C 362.647 232.964,363.134 233.267,364.384 231.925 C 365.108 231.148,365.442 230.400,365.066 230.400 C 364.992 230.400,364.451 230.940,363.863 231.600 M28.418 232.400 C 28.414 233.004,30.290 235.043,30.582 234.752 C 30.668 234.665,30.217 233.966,29.580 233.197 C 28.900 232.377,28.420 232.048,28.418 232.400 M240.046 233.019 C 238.704 234.434,239.149 234.540,240.600 233.150 C 241.260 232.518,241.620 232.004,241.400 232.007 C 241.180 232.011,240.571 232.466,240.046 233.019 M360.079 235.908 C 359.132 236.889,358.455 237.788,358.574 237.908 C 358.694 238.027,359.599 237.294,360.585 236.279 C 361.572 235.264,362.248 234.365,362.089 234.280 C 361.930 234.195,361.025 234.928,360.079 235.908 M30.800 235.548 C 30.800 235.998,35.231 240.400,35.683 240.400 C 35.872 240.400,36.526 240.895,37.137 241.500 C 38.791 243.140,40.508 244.400,41.087 244.400 C 41.369 244.400,41.600 244.577,41.600 244.792 C 41.600 245.008,42.050 245.298,42.600 245.436 C 43.150 245.574,43.600 245.833,43.600 246.012 C 43.600 246.190,44.140 246.455,44.800 246.600 C 45.460 246.745,46.001 246.984,46.003 247.132 C 46.008 247.569,48.078 248.399,48.505 248.135 C 48.906 247.888,46.207 246.438,45.300 246.414 C 45.025 246.406,44.800 246.240,44.800 246.043 C 44.800 245.847,44.316 245.565,43.724 245.417 C 43.132 245.268,42.367 244.824,42.024 244.430 C 41.681 244.037,40.995 243.587,40.500 243.430 C 40.005 243.274,39.600 242.978,39.600 242.773 C 39.600 242.568,39.427 242.400,39.216 242.400 C 38.795 242.400,37.700 241.468,33.699 237.700 C 30.907 235.072,30.800 234.992,30.800 235.548 M235.662 236.862 C 234.926 237.519,234.419 238.152,234.536 238.269 C 234.652 238.386,235.311 237.905,236.000 237.200 C 237.620 235.543,237.392 235.315,235.662 236.862 M355.208 240.224 C 354.663 240.761,354.425 241.200,354.680 241.200 C 355.234 241.200,356.400 240.096,356.400 239.571 C 356.400 239.073,356.351 239.099,355.208 240.224 M229.100 243.985 C 227.747 245.303,228.361 246.086,239.400 257.119 C 245.450 263.166,250.400 267.915,250.400 267.673 C 250.400 267.430,250.133 266.999,249.808 266.716 C 249.482 266.432,247.727 264.701,245.908 262.868 C 244.088 261.035,242.369 259.325,242.087 259.068 C 241.805 258.811,241.062 258.084,240.435 257.452 C 239.171 256.179,239.203 256.212,236.748 253.756 C 235.787 252.795,234.820 251.824,234.600 251.599 C 234.380 251.374,232.985 250.011,231.500 248.571 C 228.691 245.846,228.323 245.037,229.499 244.177 C 229.884 243.896,230.109 243.584,229.999 243.484 C 229.890 243.385,229.485 243.610,229.100 243.985 M349.600 243.873 C 349.600 244.097,348.790 244.613,347.800 245.022 C 346.810 245.430,346.000 245.895,346.000 246.054 C 346.000 246.214,345.685 246.423,345.300 246.518 C 344.915 246.614,345.140 246.622,345.800 246.537 C 346.460 246.452,347.060 246.206,347.133 245.991 C 347.207 245.776,347.502 245.600,347.789 245.600 C 348.550 245.600,350.253 244.122,349.900 243.768 C 349.735 243.602,349.600 243.650,349.600 243.873 M341.520 248.080 C 341.893 248.453,342.107 248.453,342.480 248.080 C 342.853 247.707,342.747 247.600,342.000 247.600 C 341.253 247.600,341.147 247.707,341.520 248.080 M49.200 248.302 C 49.200 248.759,51.367 249.624,52.870 249.768 C 53.602 249.838,53.795 249.817,53.300 249.721 C 52.805 249.625,52.400 249.379,52.400 249.173 C 52.400 248.968,51.950 248.800,51.400 248.800 C 50.850 248.800,50.400 248.620,50.400 248.400 C 50.400 248.180,50.130 248.000,49.800 248.000 C 49.470 248.000,49.200 248.136,49.200 248.302 M339.400 248.400 C 339.264 248.620,339.523 248.800,339.976 248.800 C 340.429 248.800,340.800 248.620,340.800 248.400 C 340.800 248.180,340.541 248.000,340.224 248.000 C 339.907 248.000,339.536 248.180,339.400 248.400 M337.200 249.200 C 337.200 249.420,337.560 249.600,338.000 249.600 C 338.440 249.600,338.800 249.420,338.800 249.200 C 338.800 248.980,338.440 248.800,338.000 248.800 C 337.560 248.800,337.200 248.980,337.200 249.200 M54.800 250.400 C 54.800 250.620,55.239 250.800,55.776 250.800 C 56.313 250.800,56.864 250.620,57.000 250.400 C 57.144 250.167,56.737 250.000,56.024 250.000 C 55.351 250.000,54.800 250.180,54.800 250.400 M330.400 250.400 C 330.400 250.909,332.012 250.909,332.800 250.400 C 333.246 250.112,333.016 250.011,331.900 250.006 C 331.075 250.003,330.400 250.180,330.400 250.400 M57.900 251.082 C 58.395 251.178,59.205 251.178,59.700 251.082 C 60.195 250.987,59.790 250.909,58.800 250.909 C 57.810 250.909,57.405 250.987,57.900 251.082 M309.900 251.099 C 313.255 251.166,318.745 251.166,322.100 251.099 C 325.455 251.032,322.710 250.978,316.000 250.978 C 309.290 250.978,306.545 251.032,309.900 251.099 M61.800 251.600 C 61.936 251.820,63.466 252.000,65.200 252.000 C 66.934 252.000,68.464 251.820,68.600 251.600 C 68.758 251.345,67.530 251.200,65.200 251.200 C 62.870 251.200,61.642 251.345,61.800 251.600 M70.800 251.600 C 71.576 252.101,72.000 252.101,72.000 251.600 C 72.000 251.380,71.595 251.203,71.100 251.206 C 70.372 251.211,70.315 251.286,70.800 251.600 M272.400 251.600 C 272.400 251.820,272.839 252.000,273.376 252.000 C 273.913 252.000,274.464 251.820,274.600 251.600 C 274.744 251.367,274.337 251.200,273.624 251.200 C 272.951 251.200,272.400 251.380,272.400 251.600 M270.000 252.400 C 270.000 252.620,270.259 252.800,270.576 252.800 C 270.893 252.800,271.264 252.620,271.400 252.400 C 271.536 252.180,271.277 252.000,270.824 252.000 C 270.371 252.000,270.000 252.180,270.000 252.400 M263.800 254.833 C 262.689 255.599,262.674 255.640,263.600 255.376 C 264.150 255.220,264.690 254.963,264.800 254.806 C 264.910 254.649,265.270 254.417,265.600 254.292 C 266.133 254.089,266.133 254.060,265.600 254.034 C 265.270 254.018,264.460 254.378,263.800 254.833 M261.260 256.268 C 260.519 257.069,261.009 257.448,261.784 256.673 C 262.126 256.331,262.270 255.968,262.103 255.867 C 261.936 255.767,261.557 255.947,261.260 256.268 M257.775 259.355 C 255.801 261.353,255.314 262.085,256.179 261.753 C 256.521 261.622,256.800 261.393,256.800 261.246 C 256.800 261.098,257.455 260.302,258.256 259.478 C 259.057 258.653,259.642 257.918,259.556 257.844 C 259.470 257.770,258.669 258.450,257.775 259.355 M280.812 262.700 C 280.823 263.640,280.883 263.698,281.232 263.100 C 281.581 262.502,282.319 262.392,286.320 262.348 C 295.654 262.243,297.578 261.734,288.900 261.665 L 280.800 261.600 280.812 262.700 M311.365 266.100 C 311.332 270.446,310.665 275.375,309.998 276.200 C 309.820 276.420,309.548 277.455,309.392 278.500 C 309.236 279.545,308.950 280.400,308.755 280.400 C 308.560 280.400,308.400 280.749,308.400 281.176 C 308.400 281.603,308.234 282.055,308.031 282.181 C 307.828 282.306,307.543 282.947,307.399 283.605 C 307.255 284.262,306.985 284.800,306.800 284.800 C 306.615 284.800,306.345 285.340,306.200 286.000 C 306.055 286.660,305.790 287.200,305.612 287.200 C 305.433 287.200,305.163 287.693,305.012 288.296 C 304.860 288.899,304.615 289.484,304.466 289.596 C 304.244 289.764,302.182 292.470,300.216 295.173 C 299.433 296.250,293.371 302.199,292.285 302.956 C 291.224 303.696,290.861 304.400,291.541 304.400 C 292.165 304.400,300.391 296.738,300.411 296.139 C 300.417 295.952,300.957 295.275,301.611 294.633 C 302.265 293.992,302.800 293.242,302.800 292.967 C 302.800 292.692,302.938 292.407,303.106 292.333 C 303.608 292.114,306.774 286.842,307.040 285.782 C 307.176 285.242,307.433 284.800,307.612 284.800 C 307.790 284.800,308.055 284.260,308.200 283.600 C 308.345 282.940,308.629 282.400,308.832 282.400 C 309.034 282.400,309.200 281.961,309.200 281.424 C 309.200 280.887,309.396 280.326,309.635 280.178 C 309.874 280.031,309.981 279.570,309.872 279.155 C 309.764 278.740,309.838 278.400,310.037 278.400 C 310.237 278.400,310.400 278.051,310.400 277.624 C 310.400 277.197,310.570 276.742,310.777 276.614 C 310.984 276.486,311.277 275.126,311.428 273.591 C 311.580 272.056,311.860 270.800,312.052 270.800 C 312.243 270.800,312.400 268.730,312.400 266.200 C 312.400 262.787,312.271 261.600,311.900 261.600 C 311.532 261.599,311.391 262.784,311.365 266.100 M254.229 263.429 C 253.449 264.209,253.430 264.440,254.169 264.157 C 254.482 264.036,254.836 263.682,254.957 263.369 C 255.240 262.630,255.009 262.649,254.229 263.429 M279.853 267.300 C 279.710 268.675,279.414 269.860,279.196 269.933 C 278.978 270.007,278.800 270.385,278.800 270.773 C 278.800 271.162,278.260 272.225,277.600 273.137 C 276.940 274.048,276.400 274.879,276.400 274.985 C 276.400 275.427,272.225 279.200,271.735 279.200 C 271.441 279.200,271.200 279.381,271.200 279.601 C 271.200 279.822,270.480 280.314,269.600 280.696 C 268.720 281.077,268.000 281.509,268.000 281.657 C 268.000 281.804,267.660 281.836,267.245 281.728 C 266.830 281.619,266.369 281.726,266.222 281.965 C 266.074 282.204,265.524 282.400,265.000 282.400 C 264.476 282.400,263.936 282.580,263.800 282.800 C 263.251 283.689,266.257 283.123,269.061 281.810 C 273.127 279.906,277.094 275.971,279.316 271.639 C 280.460 269.409,281.267 264.800,280.514 264.800 C 280.294 264.800,279.997 265.925,279.853 267.300 M252.288 266.457 C 251.896 267.145,251.640 267.774,251.720 267.854 C 251.800 267.933,252.106 267.549,252.400 266.999 C 252.694 266.450,253.085 266.000,253.268 266.000 C 253.450 266.000,253.600 265.820,253.600 265.600 C 253.600 264.823,252.991 265.220,252.288 266.457 M289.521 304.900 C 289.227 305.175,288.359 305.746,287.593 306.170 C 286.827 306.593,286.110 307.046,286.000 307.176 C 285.693 307.539,280.472 310.000,280.008 310.000 C 279.784 310.000,279.600 310.180,279.600 310.400 C 279.600 310.620,279.465 310.770,279.300 310.733 C 278.687 310.595,276.000 311.300,276.000 311.598 C 276.000 311.769,275.010 312.032,273.800 312.183 C 272.590 312.334,271.600 312.649,271.600 312.883 C 271.600 313.403,275.175 312.985,275.764 312.396 C 275.982 312.178,276.529 311.999,276.980 311.998 C 277.431 311.996,278.283 311.743,278.873 311.435 C 279.463 311.127,280.498 310.754,281.173 310.606 C 281.848 310.458,282.400 310.171,282.400 309.968 C 282.400 309.766,282.760 309.600,283.200 309.600 C 283.640 309.600,284.000 309.459,284.000 309.288 C 284.000 309.116,284.495 308.756,285.100 308.488 C 288.599 306.938,291.906 304.400,290.429 304.400 C 290.224 304.400,289.816 304.625,289.521 304.900 M217.810 309.216 C 217.940 309.427,218.307 309.600,218.624 309.600 C 218.941 309.600,219.200 309.761,219.200 309.957 C 219.200 310.154,219.461 310.414,219.780 310.537 C 220.157 310.682,220.285 310.567,220.148 310.208 C 220.031 309.904,219.404 309.471,218.754 309.244 C 218.039 308.995,217.666 308.984,217.810 309.216 M221.600 311.957 C 221.600 312.154,221.885 312.424,222.233 312.557 C 223.211 312.933,223.308 312.851,222.657 312.200 C 221.977 311.520,221.600 311.433,221.600 311.957 M223.600 313.062 C 223.600 313.602,224.988 314.684,226.057 314.979 C 226.943 315.223,226.952 315.209,226.200 314.753 C 225.760 314.487,225.310 314.163,225.200 314.034 C 224.640 313.379,223.600 312.747,223.600 313.062 M227.790 316.248 C 228.147 316.604,228.559 316.774,228.707 316.626 C 228.856 316.478,228.712 316.189,228.388 315.984 C 227.443 315.387,227.087 315.544,227.790 316.248 M233.034 318.744 C 232.943 318.892,233.303 319.218,233.834 319.469 C 234.365 319.719,234.874 319.804,234.966 319.656 C 235.057 319.508,234.697 319.182,234.166 318.931 C 233.635 318.681,233.126 318.596,233.034 318.744 M237.200 320.800 C 237.200 321.020,237.470 321.200,237.800 321.200 C 238.130 321.200,238.400 321.020,238.400 320.800 C 238.400 320.580,238.130 320.400,237.800 320.400 C 237.470 320.400,237.200 320.580,237.200 320.800 M240.800 322.000 C 240.800 322.220,241.070 322.400,241.400 322.400 C 241.730 322.400,242.000 322.220,242.000 322.000 C 242.000 321.780,241.730 321.600,241.400 321.600 C 241.070 321.600,240.800 321.780,240.800 322.000 M245.200 323.200 C 245.200 323.420,245.695 323.597,246.300 323.594 C 247.157 323.589,247.268 323.502,246.800 323.200 C 246.017 322.694,245.200 322.694,245.200 323.200 M248.136 324.178 C 248.281 324.556,248.403 326.426,248.406 328.333 C 248.410 330.560,248.542 331.595,248.775 331.228 C 249.382 330.268,249.096 323.898,248.436 323.678 C 248.040 323.547,247.951 323.695,248.136 324.178 M216.800 327.400 C 216.800 328.867,216.974 330.000,217.200 330.000 C 217.426 330.000,217.600 328.867,217.600 327.400 C 217.600 325.933,217.426 324.800,217.200 324.800 C 216.974 324.800,216.800 325.933,216.800 327.400 M216.178 331.635 C 216.031 331.874,216.110 332.270,216.355 332.515 C 216.682 332.842,216.800 332.726,216.800 332.080 C 216.800 331.114,216.592 330.965,216.178 331.635 M176.800 333.000 C 176.800 333.330,176.980 333.600,177.200 333.600 C 177.420 333.600,177.600 333.330,177.600 333.000 C 177.600 332.670,177.420 332.400,177.200 332.400 C 176.980 332.400,176.800 332.670,176.800 333.000 M215.600 333.800 C 215.600 334.130,215.780 334.400,216.000 334.400 C 216.220 334.400,216.400 334.130,216.400 333.800 C 216.400 333.470,216.220 333.200,216.000 333.200 C 215.780 333.200,215.600 333.470,215.600 333.800 M247.600 334.800 C 247.600 335.460,247.780 336.000,248.000 336.000 C 248.220 336.000,248.400 335.460,248.400 334.800 C 248.400 334.140,248.220 333.600,248.000 333.600 C 247.780 333.600,247.600 334.140,247.600 334.800 M178.000 335.829 C 178.000 335.954,178.270 336.327,178.600 336.657 C 179.251 337.308,179.333 337.211,178.957 336.233 C 178.729 335.638,178.000 335.330,178.000 335.829 M145.200 338.400 C 145.200 338.840,145.380 339.200,145.600 339.200 C 145.820 339.200,146.000 338.840,146.000 338.400 C 146.000 337.960,145.820 337.600,145.600 337.600 C 145.380 337.600,145.200 337.960,145.200 338.400 M212.408 339.024 C 211.863 339.561,211.625 340.000,211.880 340.000 C 212.434 340.000,213.600 338.896,213.600 338.371 C 213.600 337.873,213.551 337.899,212.408 339.024 M180.800 339.769 C 180.800 339.990,183.210 342.400,183.431 342.400 C 183.809 342.400,183.540 342.001,182.369 340.831 C 181.199 339.660,180.800 339.391,180.800 339.769 M246.400 340.376 C 246.400 340.829,246.580 341.200,246.800 341.200 C 247.020 341.200,247.200 340.941,247.200 340.624 C 247.200 340.307,247.020 339.936,246.800 339.800 C 246.580 339.664,246.400 339.923,246.400 340.376 M209.208 342.252 C 208.663 342.773,208.365 343.200,208.545 343.200 C 209.099 343.200,210.847 341.676,210.513 341.483 C 210.341 341.384,209.754 341.730,209.208 342.252 M146.400 343.000 C 146.400 343.330,146.580 343.600,146.800 343.600 C 147.020 343.600,147.200 343.330,147.200 343.000 C 147.200 342.670,147.020 342.400,146.800 342.400 C 146.580 342.400,146.400 342.670,146.400 343.000 M245.200 344.200 C 245.200 344.530,245.380 344.800,245.600 344.800 C 245.820 344.800,246.000 344.530,246.000 344.200 C 246.000 343.870,245.820 343.600,245.600 343.600 C 245.380 343.600,245.200 343.870,245.200 344.200 M147.200 345.000 C 147.200 345.330,147.380 345.600,147.600 345.600 C 147.820 345.600,148.000 345.330,148.000 345.000 C 148.000 344.670,147.820 344.400,147.600 344.400 C 147.380 344.400,147.200 344.670,147.200 345.000 M190.000 346.000 C 190.000 346.220,190.371 346.400,190.824 346.400 C 191.277 346.400,191.536 346.220,191.400 346.000 C 191.264 345.780,190.893 345.600,190.576 345.600 C 190.259 345.600,190.000 345.780,190.000 346.000 M202.400 346.000 C 202.400 346.220,202.670 346.400,203.000 346.400 C 203.330 346.400,203.600 346.220,203.600 346.000 C 203.600 345.780,203.330 345.600,203.000 345.600 C 202.670 345.600,202.400 345.780,202.400 346.000 M149.213 349.471 C 149.235 350.034,150.400 351.385,150.400 350.848 C 150.400 350.570,150.130 350.073,149.800 349.743 C 149.470 349.413,149.206 349.291,149.213 349.471 M242.800 350.029 C 242.800 350.264,242.530 350.727,242.200 351.057 C 241.870 351.387,241.606 351.869,241.613 352.129 C 241.632 352.788,243.200 350.838,243.200 350.156 C 243.200 349.850,243.110 349.600,243.000 349.600 C 242.890 349.600,242.800 349.793,242.800 350.029 M240.118 354.300 C 239.733 354.905,239.240 355.525,239.021 355.678 C 238.801 355.832,238.777 356.101,238.966 356.278 C 239.155 356.455,239.392 356.368,239.493 356.085 C 239.594 355.802,240.125 355.037,240.674 354.385 C 241.222 353.733,241.479 353.200,241.245 353.200 C 241.010 353.200,240.503 353.695,240.118 354.300 M237.608 357.852 C 237.063 358.373,236.810 358.800,237.046 358.800 C 237.527 358.800,239.021 357.277,238.764 357.050 C 238.674 356.970,238.154 357.331,237.608 357.852 M154.800 358.195 C 154.800 358.556,156.174 360.000,156.517 360.000 C 156.704 360.000,156.574 359.717,156.229 359.371 C 155.883 359.026,155.600 358.576,155.600 358.371 C 155.600 358.167,155.420 358.000,155.200 358.000 C 154.980 358.000,154.800 358.088,154.800 358.195 M233.957 361.978 C 231.320 364.686,230.564 365.600,230.965 365.600 C 231.205 365.600,235.911 360.959,236.749 359.897 C 238.053 358.241,236.385 359.485,233.957 361.978 M161.800 365.600 C 162.198 366.040,162.704 366.400,162.923 366.400 C 163.143 366.400,162.907 366.040,162.400 365.600 C 161.893 365.160,161.387 364.800,161.277 364.800 C 161.166 364.800,161.402 365.160,161.800 365.600 M228.117 367.185 C 227.631 367.579,227.336 368.002,227.460 368.126 C 227.584 368.250,228.058 368.005,228.513 367.580 C 229.590 366.577,229.266 366.253,228.117 367.185 M164.800 367.904 C 164.800 368.071,165.160 368.432,165.600 368.707 C 166.530 369.288,166.654 368.997,165.829 368.171 C 165.198 367.541,164.800 367.437,164.800 367.904 M225.867 368.667 C 225.484 369.049,225.538 369.600,225.957 369.600 C 226.154 369.600,226.418 369.330,226.545 369.000 C 226.779 368.390,226.353 368.181,225.867 368.667 M222.013 371.491 C 221.489 372.082,221.503 372.123,222.146 371.876 C 222.542 371.724,222.941 371.600,223.033 371.600 C 223.125 371.600,223.200 371.420,223.200 371.200 C 223.200 370.612,222.681 370.739,222.013 371.491 M216.000 374.400 C 216.000 374.620,216.270 374.800,216.600 374.800 C 216.930 374.800,217.200 374.620,217.200 374.400 C 217.200 374.180,216.930 374.000,216.600 374.000 C 216.270 374.000,216.000 374.180,216.000 374.400 M179.120 375.680 C 179.493 376.053,179.707 376.053,180.080 375.680 C 180.453 375.307,180.347 375.200,179.600 375.200 C 178.853 375.200,178.747 375.307,179.120 375.680 M212.800 375.600 C 212.800 375.820,213.070 376.000,213.400 376.000 C 213.730 376.000,214.000 375.820,214.000 375.600 C 214.000 375.380,213.730 375.200,213.400 375.200 C 213.070 375.200,212.800 375.380,212.800 375.600 M186.000 377.600 C 186.000 377.820,186.259 378.000,186.576 378.000 C 186.893 378.000,187.264 377.820,187.400 377.600 C 187.536 377.380,187.277 377.200,186.824 377.200 C 186.371 377.200,186.000 377.380,186.000 377.600 M205.600 377.600 C 205.600 377.820,205.960 378.000,206.400 378.000 C 206.840 378.000,207.200 377.820,207.200 377.600 C 207.200 377.380,206.840 377.200,206.400 377.200 C 205.960 377.200,205.600 377.380,205.600 377.600 M190.105 378.287 C 190.714 378.379,191.614 378.377,192.105 378.282 C 192.597 378.187,192.100 378.111,191.000 378.114 C 189.900 378.117,189.497 378.195,190.105 378.287 M201.100 378.282 C 201.595 378.378,202.405 378.378,202.900 378.282 C 203.395 378.187,202.990 378.109,202.000 378.109 C 201.010 378.109,200.605 378.187,201.100 378.282 " stroke="none" fill="#eb7385" fill-rule="evenodd"></path><path id="path4" d="M145.013 321.283 C 144.843 325.178,144.824 328.958,144.970 329.683 C 145.116 330.407,145.390 331.900,145.578 333.000 C 145.766 334.100,146.137 336.260,146.402 337.800 C 146.667 339.340,147.022 340.780,147.190 341.000 C 147.358 341.220,147.612 342.048,147.755 342.839 C 147.988 344.138,148.697 345.848,150.721 349.991 C 153.909 356.519,158.396 361.569,167.000 368.312 C 167.374 368.605,169.562 369.984,171.394 371.083 C 171.837 371.348,172.650 371.764,173.200 372.006 C 173.750 372.248,175.134 372.886,176.275 373.423 C 177.417 373.961,178.542 374.400,178.775 374.400 C 179.009 374.400,179.200 374.556,179.200 374.746 C 179.200 374.936,180.037 375.206,181.060 375.346 C 182.082 375.486,183.117 375.760,183.360 375.955 C 185.523 377.693,208.301 377.746,209.600 376.016 C 209.710 375.870,210.844 375.427,212.119 375.032 C 215.034 374.129,215.281 374.536,208.200 368.577 C 195.331 357.746,192.933 355.746,191.001 354.231 C 189.900 353.368,187.650 351.465,186.000 350.003 C 184.350 348.541,182.624 347.087,182.165 346.772 C 181.706 346.458,180.190 345.210,178.797 344.000 C 174.918 340.631,172.982 338.990,166.997 334.000 C 163.963 331.470,159.434 327.652,156.934 325.516 C 154.434 323.380,151.757 321.150,150.985 320.561 C 150.213 319.973,148.920 318.885,148.113 318.145 C 147.305 317.405,146.504 316.800,146.333 316.800 C 146.163 316.800,145.865 316.215,145.672 315.500 C 145.413 314.540,145.240 316.054,145.013 321.283 " stroke="none" fill="#040644" fill-rule="evenodd"></path></g></svg>