<?xml version="1.0" standalone="no"?>
<!DOCTYPE svg PUBLIC "-//W3C//DTD SVG 20010904//EN"
 "http://www.w3.org/TR/2001/REC-SVG-20010904/DTD/svg10.dtd">
<svg version="1.0" xmlns="http://www.w3.org/2000/svg"
 width="300.000000pt" height="301.000000pt" viewBox="0 0 300.000000 301.000000"
 preserveAspectRatio="xMidYMid meet">
<metadata>
Created Online!
</metadata>
<g transform="translate(0.000000,301.000000) scale(0.100000,-0.100000)"
fill="#001a56" stroke="none">
<path d="M1361 2831 c-74 -28 -146 -76 -185 -125 -76 -94 -86 -139 -86 -402 0
-225 -6 -262 -51 -324 -13 -16 -45 -41 -73 -55 -44 -22 -63 -25 -165 -26 -64
0 -177 -4 -252 -8 -119 -7 -144 -11 -192 -35 -107 -52 -195 -170 -216 -291
-28 -155 61 -325 207 -397 l66 -33 293 -3 293 -3 0 110 0 110 -269 3 c-254 3
-271 4 -297 24 -53 39 -69 71 -69 134 0 66 18 99 75 138 31 21 43 22 224 22
105 0 223 5 261 10 174 25 314 145 366 311 16 52 19 93 19 280 0 162 4 228 14
252 19 46 77 94 124 102 65 11 148 -34 175 -95 8 -17 13 -167 17 -451 l5 -425
37 -75 c24 -48 57 -94 96 -133 l60 -58 58 22 c33 12 89 24 126 27 38 3 68 7
68 8 0 1 -41 42 -91 91 -144 140 -133 95 -140 594 -3 285 -9 437 -17 460 -62
188 -301 307 -481 241z m200 -15 c144 -44 238 -139 264 -269 9 -44 13 -174 12
-442 0 -448 -4 -429 115 -552 66 -67 96 -105 72 -90 -11 6 -93 -15 -145 -37
l-37 -15 -55 58 c-58 61 -97 132 -116 213 -7 30 -11 187 -11 431 0 432 0 429
-71 491 -72 61 -167 58 -237 -8 -60 -56 -62 -65 -62 -288 0 -112 -5 -231 -10
-266 -11 -67 -45 -140 -94 -199 -35 -42 -133 -108 -185 -124 -20 -7 -144 -15
-281 -18 -261 -7 -279 -11 -326 -63 -76 -83 -73 -190 6 -262 22 -20 50 -38 63
-41 13 -4 134 -7 268 -8 l243 -2 -1 -60 c-1 -33 -2 -73 -2 -88 l-1 -28 -257 4
c-142 2 -274 7 -293 11 -92 21 -178 95 -225 194 -21 43 -29 77 -33 139 -4 78
-3 85 31 155 20 40 51 88 68 107 41 43 117 91 144 91 12 0 25 4 31 10 5 5 105
10 236 10 256 2 293 9 360 73 71 68 72 73 78 358 l5 255 34 68 c50 97 128 158
246 191 66 18 110 18 166 1z"/>
<path d="M1437 1889 c-160 -37 -303 -182 -337 -339 -8 -39 -10 -203 -8 -570
l3 -515 26 -56 c141 -300 561 -302 700 -4 32 67 51 175 31 175 -25 0 -125 44
-171 74 l-48 33 4 -41 c8 -70 -13 -156 -48 -192 -81 -84 -212 -58 -261 52 -18
41 -19 69 -16 521 l3 478 24 48 c30 61 85 102 157 117 l54 11 0 110 0 109 -37
-1 c-21 -1 -55 -5 -76 -10z m87 -71 c13 -113 14 -112 -56 -133 -81 -23 -149
-88 -166 -158 -13 -51 -18 -955 -6 -1005 35 -138 209 -186 307 -83 40 42 57
86 57 147 0 24 2 44 5 44 2 0 31 -14 62 -31 32 -17 59 -31 61 -30 9 4 23 -1
35 -14 31 -31 -18 -166 -86 -235 -68 -68 -113 -92 -212 -110 -61 -11 -79 -10
-133 4 -97 25 -200 104 -238 185 -40 83 -43 137 -40 636 1 264 6 495 9 514 23
117 127 238 248 289 41 17 90 32 110 32 l36 0 7 -52z"/>
<path d="M1950 1806 c3 -55 11 -100 19 -109 11 -14 50 -16 266 -19 279 -3 278
-3 329 -72 29 -39 29 -133 0 -172 -50 -68 -52 -68 -317 -75 -141 -4 -259 -12
-282 -19 -70 -21 -150 -69 -201 -121 l-49 -49 82 -81 81 -82 38 42 c66 74 70
75 344 82 267 6 302 13 393 76 53 36 121 129 143 196 66 192 -54 424 -249 482
-40 12 -110 15 -326 15 l-276 0 5 -94z m602 55 c21 -6 44 -18 51 -26 8 -8 17
-12 19 -9 13 12 92 -80 128 -149 36 -71 40 -85 40 -152 0 -123 -57 -231 -158
-303 -71 -50 -102 -56 -362 -62 -220 -5 -250 -8 -290 -26 -25 -12 -56 -33 -69
-48 -14 -14 -29 -26 -36 -26 -6 0 -35 24 -64 54 -37 38 -52 60 -47 71 3 9 11
13 17 9 7 -4 9 -3 6 4 -11 16 91 85 162 109 57 19 88 22 252 23 186 1 281 9
317 29 29 16 81 78 88 107 11 44 -2 122 -27 159 -47 71 -70 76 -344 77 l-243
1 -11 24 c-12 27 -15 136 -4 147 12 12 534 0 575 -13z"/>
<path d="M1400 1181 l0 -137 159 -157 c133 -131 169 -162 227 -189 63 -30 78
-33 164 -33 83 0 103 4 153 27 133 63 208 161 232 306 l7 42 -116 0 c-110 0
-116 -1 -116 -20 0 -54 -66 -125 -125 -136 -80 -15 -95 -5 -299 195 -105 103
-213 199 -239 213 l-47 27 0 -138z m54 79 c13 0 72 -55 279 -257 110 -108 142
-133 173 -139 48 -10 51 -10 92 0 41 10 116 80 129 121 l10 30 87 3 88 2 -7
-42 c-20 -116 -92 -208 -205 -262 -57 -27 -75 -31 -150 -30 -74 0 -94 4 -154
32 -58 27 -92 56 -223 184 l-154 153 2 105 c1 99 7 140 17 112 2 -7 9 -12 16
-12z"/>
</g>
</svg>
